<?xml version="1.0" encoding="UTF-8"?>
<svg id="Layer_2" data-name="Layer 2" xmlns="http://www.w3.org/2000/svg" viewBox="0 0 2975 2975">
  <defs>
    <style>
      .cls-1 {
        fill: #010101;
      }

      .cls-1, .cls-2 {
        stroke-width: 0px;
      }

      .cls-2 {
        fill: #fff;
      }
    </style>
  </defs>
  <g id="Number_78">
    <g>
      <circle class="cls-2" cx="1487.5" cy="1487.5" r="1487.5"/>
      <g>
        <path class="cls-1" d="m1506.25,187.64v3.89l-3.31,4.82c-7.97,11.38-11.57,17.43-11.62,24.48,0,4.75,1.54,9.15,6.19,9.15,2.83,0,5.19-2.16,6.62-3.96l1.34,4.46c-2.16,2.74-5.23,4.75-8.83,4.75-6.72,0-9.55-6.91-9.55-13.61,0-8.64,4.18-15.62,10.75-25.13l2.5-3.46v-.14h-14.02v-5.26h19.92Z"/>
        <path class="cls-1" d="m1466.85,229.12h11.9l1.2-12.02c-.72.14-1.39.29-2.54.29-2.4,0-4.8-.79-6.72-2.52-2.45-2.09-4.46-6.12-4.46-12.02,0-9.15,4.85-15.99,11.62-15.99,3.41,0,6.29,1.44,7.78,2.88l-1.06,4.82c-1.3-1.15-3.84-2.59-6.67-2.59-3.98,0-7.39,3.89-7.39,10.15.05,6.05,2.74,10.37,8.98,10.37,1.78,0,3.17-.29,4.32-.5l-2.02,22.47h-14.93v-5.33Z"/>
      </g>
      <g>
        <path class="cls-1" d="m1401.55,190.36l.31,3.88-2.91,5.08c-7.03,11.98-10.13,18.3-9.61,25.34.38,4.74,2.27,8.99,6.91,8.62,2.82-.23,4.99-2.57,6.29-4.48l1.7,4.34c-1.93,2.9-4.83,5.16-8.42,5.45-6.7.54-10.08-6.12-10.62-12.8-.7-8.61,2.91-15.91,8.7-25.91l2.21-3.65v-.14s-13.98,1.13-13.98,1.13l-.42-5.24,19.86-1.6Z"/>
        <path class="cls-1" d="m1382.18,203.84c.47,5.89-1.53,10.24-5.16,12.99l.06.21c3.64,2.16,5.45,6.06,5.78,10.08.6,7.39-3.16,12.75-8.62,13.19-6.03.49-9.5-4.94-9.97-10.75-.32-3.95.63-8.29,4.24-11.32l-.02-.22c-4.06-1.98-6.78-5.88-7.24-11.55-.65-8.11,3.55-13.94,9.48-14.42,6.51-.53,10.9,4.97,11.45,11.79Zm-16.72,1.64c.46,5.67,3.31,8.19,7.67,9.64,3.51-1.87,5.18-5.62,4.82-10.07-.24-4.75-2.97-8.72-6.94-8.4-3.78.31-5.94,4.02-5.55,8.83Zm13.46,22.39c-.38-4.67-2.92-6.99-6.63-8.13-2.57,1.58-4.4,4.62-4.05,8.85.3,3.73,2.1,7.49,5.88,7.18,3.49-.28,5.13-3.88,4.8-7.9Z"/>
      </g>
      <g>
        <path class="cls-1" d="m1297.68,208.8c-1.37-.94-4.41-2.27-7.3-1.81-5.35.87-6.18,6.26-5.51,10.09,1.1,6.46,5.43,8.6,9.46,7.95l2.32-.38.76,4.69-2.32.38c-3.03.49-6.49,3.46-5.6,8.94.6,3.7,2.7,6.71,6.53,6.09,2.46-.4,4.57-2.42,5.66-4.06l1.83,4.37c-1.32,2.04-4.16,4.32-7.48,4.86-6.06.99-9.69-3.97-10.6-9.58-.77-4.76.46-9.12,3.92-11.8l-.02-.14c-3.98-.52-7.75-4.29-8.8-10.75-1.2-7.39,1.58-14.48,8.98-15.68,3.46-.56,6.76.58,8.52,1.83l-.35,5.02Z"/>
        <path class="cls-1" d="m1260.36,231.71c-2.55-15.71-.08-25.01,6.75-26.12,6.02-.98,11.47,6.82,14.04,22.08,2.52,15.49-.55,24.75-6.8,25.76-6.49,1.06-11.6-7.02-13.99-21.73Zm16.61-3.43c-1.95-12.01-5.52-18.43-9.32-17.82-4.26.69-5.09,8.49-3.17,20.29,1.85,11.37,5,18.52,9.32,17.82,3.65-.59,5.22-7.7,3.17-20.28Z"/>
      </g>
      <g>
        <path class="cls-1" d="m1195.38,228.27c-1.44-.83-4.58-1.91-7.42-1.21-5.27,1.3-5.66,6.73-4.68,10.5,1.62,6.35,6.11,8.14,10.07,7.16l2.28-.56,1.14,4.61-2.28.56c-2.98.74-6.19,3.97-4.86,9.36.9,3.64,3.23,6.47,7,5.54,2.42-.6,4.36-2.78,5.32-4.5l2.17,4.21c-1.15,2.14-3.8,4.65-7.06,5.45-5.97,1.47-9.98-3.18-11.34-8.7-1.15-4.68-.27-9.13,2.96-12.08l-.03-.14c-4-.2-8.07-3.65-9.64-10.01-1.79-7.27.42-14.56,7.69-16.36,3.4-.84,6.78.03,8.63,1.13l.05,5.03Z"/>
        <path class="cls-1" d="m1175.2,233.25c-1.44-.83-4.57-1.91-7.42-1.21-5.27,1.3-5.66,6.73-4.68,10.5,1.62,6.35,6.11,8.14,10.07,7.16l2.28-.56,1.14,4.61-2.28.56c-2.98.74-6.19,3.97-4.86,9.36.9,3.63,3.23,6.47,7,5.54,2.42-.6,4.36-2.78,5.32-4.5l2.17,4.21c-1.15,2.14-3.8,4.64-7.06,5.45-5.97,1.47-9.98-3.18-11.34-8.7-1.16-4.68-.27-9.13,2.96-12.08l-.03-.14c-4-.2-8.07-3.65-9.64-10.01-1.79-7.27.42-14.56,7.69-16.36,3.4-.84,6.78.03,8.63,1.13l.05,5.03Z"/>
      </g>
      <g>
        <path class="cls-1" d="m1094.97,255.81c-1.5-.71-4.71-1.54-7.49-.61-5.14,1.72-5.1,7.17-3.82,10.84,2.12,6.2,6.74,7.62,10.61,6.33l2.23-.75,1.5,4.51-2.23.74c-2.91.97-5.85,4.46-4.09,9.72,1.19,3.55,3.74,6.19,7.42,4.96,2.37-.79,4.12-3.12,4.94-4.91l2.51,4.02c-.98,2.22-3.41,4.94-6.6,6-5.83,1.95-10.2-2.36-12-7.76-1.53-4.58-1.01-9.08,1.97-12.27l-.04-.14c-4.01.12-8.34-2.99-10.41-9.2-2.37-7.1-.76-14.55,6.35-16.92,3.32-1.11,6.76-.51,8.7.44l.46,5.01Z"/>
        <path class="cls-1" d="m1069.38,300.41l11.29-3.77-2.67-11.79c-.64.36-1.23.71-2.32,1.08-2.28.76-4.8.77-7.17-.26-2.98-1.21-6.17-4.39-8.04-9.99-2.9-8.67-.46-16.7,5.96-18.84,3.23-1.08,6.42-.63,8.29.27l.53,4.91c-1.59-.68-4.46-1.24-7.15-.35-3.78,1.26-5.78,6.03-3.8,11.97,1.96,5.72,5.88,8.97,11.8,6.99,1.68-.56,2.91-1.28,3.94-1.85l5.2,21.95-14.16,4.73-1.69-5.05Z"/>
      </g>
      <g>
        <path class="cls-1" d="m997.15,291.42c-1.56-.59-4.82-1.15-7.52,0-4.99,2.13-4.5,7.55-2.94,11.11,2.61,6.01,7.33,7.05,11.09,5.45l2.16-.92,1.86,4.37-2.16.92c-2.83,1.2-5.47,4.91-3.3,10.02,1.47,3.44,4.22,5.87,7.8,4.35,2.3-.98,3.86-3.44,4.53-5.29l2.82,3.81c-.8,2.3-3,5.19-6.1,6.51-5.65,2.41-10.36-1.53-12.59-6.77-1.89-4.44-1.73-8.97.98-12.39l-.06-.13c-3.98.44-8.55-2.31-11.12-8.33-2.93-6.89-1.93-14.44,4.96-17.38,3.22-1.37,6.7-1.05,8.71-.27l.86,4.96Z"/>
        <path class="cls-1" d="m981.11,303.26c2.31,5.43,1.79,10.2-.79,13.95l.13.18c4.14.9,7.09,4.02,8.67,7.73,2.91,6.82,1.04,13.1-3.99,15.24-5.56,2.37-10.58-1.68-12.86-7.04-1.55-3.64-2.03-8.06.43-12.08l-.08-.2c-4.48-.6-8.3-3.43-10.53-8.66-3.19-7.49-1.05-14.35,4.43-16.68,6.01-2.56,11.91,1.26,14.59,7.56Zm-15.34,6.85c2.23,5.23,5.73,6.72,10.32,6.72,2.73-2.89,3.13-6.97,1.38-11.08-1.73-4.43-5.58-7.33-9.24-5.77-3.49,1.49-4.36,5.69-2.47,10.13Zm19.86,16.98c-1.83-4.31-4.99-5.7-8.86-5.62-1.94,2.31-2.71,5.77-1.04,9.68,1.47,3.44,4.36,6.44,7.85,4.95,3.22-1.37,3.64-5.31,2.06-9.02Z"/>
      </g>
      <g>
        <path class="cls-1" d="m888.46,333.83l5.92,11.29,12.84-6.74,1.94,3.7,1.56,32.93-4.04,2.12-13.52-25.76-3.87,2.03-2.31-4.4,3.87-2.03-5.92-11.29,3.53-1.85Zm8.23,15.68l7.26,13.84c1.14,2.17,2.23,4.36,3.29,6.57l.13-.07c-.42-2.87-.68-5.01-.92-7.33l-.64-17.64-.07-.13-9.05,4.75Z"/>
        <path class="cls-1" d="m874.36,368.23c-7.4-14.09-7.99-23.7-1.87-26.91,5.4-2.83,13.04,2.84,20.32,16.5,7.29,13.9,7.31,23.65,1.7,26.59-5.82,3.06-13.22-2.98-20.15-16.18Zm14.67-8.51c-5.66-10.78-11.08-15.74-14.48-13.95-3.83,2.01-2.14,9.66,3.41,20.25,5.35,10.2,10.61,15.98,14.48,13.95,3.27-1.72,2.51-8.96-3.42-20.25Z"/>
      </g>
      <g>
        <path class="cls-1" d="m816.17,424.19c.77-.4,1.66-1.05,2.52-1.94,4.71-4.94,3.79-12.96.28-19.86l-.12.08c.32,3.29-.56,6.75-3.48,8.59-4.67,2.95-11.15-.02-16.03-7.75-4.58-7.24-5.53-16.01-.05-19.48,5.64-3.57,13.49.67,19.99,10.96,4.93,7.79,6.95,15.12,6.81,20.65-.15,4.61-1.8,8.47-4.75,11.18-.9.91-1.75,1.54-2.4,1.95l-2.77-4.38Zm-13.42-23.46c3.58,5.66,7.88,7.71,11.17,5.63,2.15-1.36,2.87-4.63,2.03-8.1-.14-.76-.48-1.66-1.1-2.63-4.2-6.46-9.23-10.01-12.96-7.65-3.08,1.95-2.73,7.09.85,12.75Z"/>
        <path class="cls-1" d="m786.28,421.28c-8.51-13.45-9.87-22.98-4.03-26.67,5.15-3.26,13.22,1.78,21.58,14.81,8.39,13.27,9.19,22.98,3.84,26.37-5.56,3.52-13.42-1.91-21.38-14.51Zm13.94-9.67c-6.5-10.29-12.31-14.79-15.55-12.74-3.65,2.31-1.36,9.8,5.03,19.91,6.16,9.74,11.86,15.08,15.55,12.74,3.12-1.98,1.78-9.13-5.03-19.9Z"/>
      </g>
      <g>
        <path class="cls-1" d="m733.57,486.66l-2.51-3.34-14.75-42.24,3.49-2.62,14.05,41.23.09.11,12.2-9.17,3.16,4.2-15.73,11.82Z"/>
        <path class="cls-1" d="m715.06,493.9l9.52-7.15-6.26-10.33c-.49.55-.94,1.07-1.86,1.76-1.92,1.44-4.31,2.25-6.89,2.02-3.21-.2-7.25-2.21-10.79-6.93-5.49-7.31-5.73-15.69-.32-19.76,2.72-2.05,5.89-2.63,7.95-2.37l2.05,4.49c-1.73-.14-4.63.23-6.89,1.94-3.18,2.39-3.58,7.55.19,12.56,3.67,4.81,8.42,6.65,13.41,2.9,1.42-1.07,2.36-2.13,3.15-3l11.88,19.17-11.94,8.97-3.2-4.26Z"/>
      </g>
      <g>
        <path class="cls-1" d="m640.72,507.05c-.78.5-1.47,1.31-2.41,2.42-1.5,2-2.22,4.66-1.88,7.73.32,3.47,1.92,7.53,5.17,12.06l.11-.1c-.81-3.52-.18-6.57,2.16-8.64,4.2-3.72,11.1-1.37,16.4,4.61,5.87,6.63,7.83,15.28,3.05,19.52-4.78,4.23-12.88,1.02-20.81-7.92-6.83-7.71-9.88-14.62-10.54-20-.54-4.23.5-8.05,2.64-10.71.91-1.29,1.87-2.23,2.67-2.85l3.44,3.88Zm16.71,21.18c-3.87-4.37-8.35-5.88-11.08-3.46-2.12,1.88-2.39,4.91-1.35,7.74.2.59.57,1.23,1.24,1.98,5.3,5.98,10.83,9.26,14.14,6.33,2.7-2.39,1.45-7.63-2.95-12.59Z"/>
        <path class="cls-1" d="m624.37,547.52c-10.55-11.91-13.43-21.1-8.26-25.68,4.56-4.04,13.34-.37,23.67,11.16,10.41,11.75,12.76,21.21,8.02,25.41-4.92,4.36-13.55.27-23.43-10.89Zm12.21-11.78c-8.07-9.11-14.52-12.63-17.4-10.08-3.23,2.86.23,9.89,8.16,18.84,7.64,8.62,14.13,12.98,17.4,10.08,2.77-2.45.29-9.3-8.16-18.84Z"/>
      </g>
      <g>
        <path class="cls-1" d="m593.42,600.99l.07-.07.59-6.95,4.04,2.75-.78,8.71-2.49,2.6-33.76-32.42,2.83-2.94,29.5,28.33Z"/>
        <path class="cls-1" d="m558.76,612.55c-11.48-11.02-15.09-19.95-10.3-24.93,4.22-4.4,13.26-1.44,24.49,9.22,11.32,10.87,14.43,20.11,10.04,24.68-4.56,4.74-13.48,1.36-24.23-8.97Zm11.22-12.72c-8.78-8.43-15.49-11.42-18.15-8.65-2.99,3.12,1.03,9.84,9.65,18.12,8.31,7.98,15.12,11.8,18.15,8.65,2.56-2.67-.46-9.29-9.65-18.12Z"/>
        <path class="cls-1" d="m558.49,638.19l8.25-8.59-7.84-9.2c-.39.62-.76,1.2-1.55,2.03-1.66,1.73-3.9,2.91-6.47,3.1-3.2.32-7.51-1.02-11.77-5.11-6.6-6.33-8.17-14.57-3.48-19.45,2.36-2.46,5.39-3.54,7.46-3.61l2.75,4.1c-1.73.14-4.53.97-6.49,3.02-2.76,2.87-2.32,8.02,2.2,12.36,4.4,4.16,9.37,5.21,13.7.71,1.23-1.28,1.99-2.48,2.63-3.47l14.81,17.02-10.34,10.77-3.84-3.69Z"/>
      </g>
      <g>
        <path class="cls-1" d="m524.86,675.81l.06-.07.03-6.98,4.25,2.42-.07,8.74-2.28,2.79-36.25-29.6,2.58-3.16,31.68,25.87Z"/>
        <path class="cls-1" d="m485.84,658.94l3.01,2.46,1.64,5.62c3.77,13.37,6.18,19.98,11.62,24.48,3.68,3.01,8.06,4.59,11,.99,1.79-2.19,1.61-5.38,1.12-7.64l4.31,1.78c.75,3.4.37,7.06-1.91,9.85-4.25,5.21-11.4,3.03-16.58-1.21-6.69-5.46-9.46-13.12-12.66-24.22l-1.1-4.12-.11-.09-8.87,10.86-4.07-3.32,12.6-15.43Z"/>
        <path class="cls-1" d="m478.09,706.22c-12.33-10.06-16.64-18.67-12.27-24.02,3.86-4.72,13.1-2.5,25.16,7.22,12.16,9.93,16,18.89,11.99,23.8-4.16,5.09-13.33,2.44-24.88-6.99Zm10.16-13.58c-9.43-7.7-16.36-10.13-18.79-7.16-2.73,3.35,1.82,9.73,11.08,17.29,8.92,7.29,16.03,10.54,18.79,7.16,2.34-2.86-1.2-9.23-11.08-17.29Z"/>
      </g>
      <g>
        <path class="cls-1" d="m462.81,755.89l.05-.08-.53-6.96,4.43,2.07.63,8.72-2.04,2.96-38.52-26.59,2.32-3.36,33.66,23.23Z"/>
        <path class="cls-1" d="m427.96,747.18c-1.63.33-4.69,1.6-6.36,4.01-3.08,4.46.23,8.79,3.46,10.96,5.42,3.68,9.97,2.04,12.29-1.32l1.34-1.94,3.91,2.7-1.34,1.94c-1.75,2.53-2,7.08,2.56,10.23,3.08,2.13,6.71,2.71,8.92-.49,1.42-2.05,1.42-4.97,1-6.9l4.42,1.71c.55,2.37.24,6-1.67,8.76-3.49,5.06-9.58,4.24-14.26,1.01-3.97-2.74-6.26-6.65-5.79-11l-.12-.08c-3.13,2.51-8.46,2.62-13.85-1.1-6.16-4.25-9.35-11.18-5.09-17.34,1.99-2.88,5.1-4.47,7.22-4.88l3.38,3.73Z"/>
        <path class="cls-1" d="m434.3,798.21l6.76-9.8-9.21-7.82c-.29.67-.55,1.31-1.21,2.26-1.36,1.97-3.38,3.5-5.89,4.1-3.11.83-7.57.2-12.43-3.16-7.53-5.19-10.4-13.07-6.56-18.64,1.94-2.8,4.76-4.36,6.79-4.76l3.37,3.61c-1.68.41-4.31,1.69-5.92,4.02-2.26,3.28-1,8.29,4.16,11.85,5.01,3.4,10.09,3.64,13.63-1.5,1.01-1.46,1.56-2.77,2.04-3.84l17.34,14.42-8.48,12.29-4.39-3.03Z"/>
      </g>
      <g>
        <path class="cls-1" d="m407.16,840.76l.05-.08-1.09-6.89,4.59,1.71,1.33,8.64-1.8,3.12-40.53-23.4,2.04-3.53,35.42,20.45Z"/>
        <path class="cls-1" d="m392.54,867.23l5.95-10.31-9.81-7.05c-.23.7-.45,1.35-1.02,2.35-1.2,2.08-3.09,3.76-5.54,4.56-3.03,1.08-7.53.81-12.65-2.15-7.92-4.57-11.42-12.19-8.04-18.05,1.7-2.95,4.39-4.73,6.38-5.29l3.65,3.33c-1.65.55-4.17,2.03-5.58,4.48-1.99,3.45-.33,8.35,5.1,11.48,5.26,2.98,10.35,2.81,13.47-2.59.89-1.54,1.33-2.89,1.72-3.99l18.45,12.98-7.46,12.93-4.62-2.66Z"/>
        <path class="cls-1" d="m365.88,878.28c-13.78-7.96-19.42-15.76-15.96-21.74,3.05-5.28,12.53-4.57,25.99,3.09,13.59,7.85,18.82,16.08,15.65,21.57-3.29,5.7-12.77,4.55-25.68-2.91Zm7.85-15.04c-10.54-6.08-17.77-7.38-19.69-4.05-2.16,3.74,3.36,9.31,13.71,15.29,9.98,5.76,17.51,7.84,19.69,4.05,1.85-3.2-2.67-8.91-13.71-15.29Z"/>
      </g>
      <g>
        <path class="cls-1" d="m358.68,929.76l.04-.09-1.64-6.78,4.71,1.33,2.02,8.5-1.54,3.25-42.29-20.06,1.75-3.69,36.95,17.53Z"/>
        <path class="cls-1" d="m347.36,956.96c.44-.75.84-1.78,1.1-2.99,1.34-6.7-3.72-12.98-10.38-16.93l-.06.13c2.03,2.61,3.13,6,1.65,9.12-2.37,4.99-9.43,5.94-17.7,2.02-7.74-3.67-13.23-10.58-10.45-16.44,2.86-6.03,11.76-6.64,22.75-1.42,8.33,3.95,13.95,9.06,16.8,13.82,2.34,3.98,3,8.12,1.96,11.98-.27,1.25-.66,2.24-.99,2.93l-4.68-2.22Zm-23.88-12.66c6.05,2.87,10.78,2.3,12.45-1.21,1.09-2.3-.05-5.44-2.61-7.93-.53-.57-1.29-1.14-2.33-1.64-7-3.22-13.15-3.53-15.04.46-1.56,3.3,1.49,7.45,7.54,10.32Z"/>
        <path class="cls-1" d="m337.32,976.1l5.1-10.75-10.35-6.24c-.18.71-.34,1.38-.83,2.42-1.03,2.17-2.77,4-5.16,4.99-2.94,1.32-7.44,1.41-12.78-1.12-8.26-3.92-12.36-11.23-9.46-17.35,1.46-3.08,4-5.06,5.94-5.79l3.91,3.02c-1.6.68-3.99,2.36-5.2,4.92-1.71,3.6.34,8.35,6,11.03,5.49,2.55,10.54,1.97,13.22-3.67.76-1.6,1.1-2.99,1.4-4.12l19.43,11.45-6.4,13.49-4.81-2.28Z"/>
      </g>
      <g>
        <path class="cls-1" d="m317.45,1022.45l.03-.09-2.18-6.63,4.8.95,2.7,8.31-1.28,3.37-43.76-16.6,1.45-3.81,38.24,14.5Z"/>
        <path class="cls-1" d="m286.33,1022.66c5.52,2.09,8.59,5.77,9.52,10.23l.22.03c3.52-2.36,7.81-2.33,11.58-.9,6.93,2.63,10.17,8.32,8.23,13.44-2.15,5.66-8.54,6.47-13.99,4.4-3.7-1.4-7.22-4.12-8.41-8.68l-.2-.08c-3.53,2.82-8.22,3.61-13.54,1.59-7.61-2.89-11.07-9.18-8.96-14.75,2.32-6.1,9.16-7.72,15.56-5.29Zm-5.69,15.81c5.32,2.02,8.81.52,11.99-2.79-.19-3.97-2.86-7.09-7.03-8.67-4.39-1.82-9.15-1.06-10.56,2.67-1.34,3.55,1.09,7.09,5.6,8.8Zm26-2.56c-4.38-1.66-7.57-.35-10.19,2.5.33,3,2.29,5.95,6.26,7.46,3.5,1.33,7.66,1.31,9.01-2.23,1.24-3.28-1.31-6.3-5.08-7.73Z"/>
        <path class="cls-1" d="m282.72,1066.11c-14.88-5.64-21.7-12.44-19.25-18.9,2.16-5.7,11.64-6.52,26.15-1.12,14.68,5.57,21.16,12.85,18.91,18.77-2.33,6.15-11.87,6.54-25.81,1.25Zm5.34-16.1c-11.38-4.32-18.73-4.43-20.09-.84-1.53,4.04,4.81,8.65,15.98,12.89,10.77,4.09,18.54,4.93,20.09.84,1.31-3.46-4.07-8.37-15.98-12.89Z"/>
      </g>
      <g>
        <path class="cls-1" d="m283.77,1118.05l.03-.09-2.71-6.43,4.86.56,3.36,8.07-1,3.46-44.96-13.02,1.13-3.92,39.29,11.38Z"/>
        <path class="cls-1" d="m244.86,1121.42c-.39.84-.55,1.89-.74,3.33-.2,2.49.61,5.13,2.54,7.53,2.12,2.76,5.65,5.34,10.82,7.43l.04-.14c-2.56-2.54-3.67-5.46-2.8-8.46,1.56-5.4,8.65-7.09,16.33-4.87,8.51,2.46,14.79,8.73,13.01,14.86s-10.34,7.75-21.82,4.42c-9.89-2.86-16.17-7.08-19.6-11.27-2.72-3.29-3.87-7.07-3.49-10.46.08-1.58.39-2.89.74-3.84l4.98,1.44Zm25.44,8.97c-5.6-1.62-10.2-.51-11.21,3-.79,2.72.6,5.42,2.99,7.26.49.39,1.14.73,2.11,1.01,7.68,2.22,14.1,2.04,15.33-2.21,1-3.46-2.86-7.22-9.22-9.07Z"/>
        <path class="cls-1" d="m270.13,1167.22l3.31-11.44-11.22-4.5c-.06.73-.11,1.42-.43,2.52-.67,2.31-2.1,4.39-4.29,5.75-2.69,1.77-7.12,2.59-12.79.94-8.79-2.54-14.01-9.1-12.12-15.61.95-3.27,3.13-5.64,4.93-6.67l4.34,2.36c-1.47.92-3.56,2.97-4.35,5.69-1.11,3.83,1.68,8.18,7.7,9.93,5.82,1.64,10.72.26,12.46-5.74.49-1.71.61-3.12.72-4.29l21.02,8.19-4.15,14.34-5.12-1.48Z"/>
      </g>
      <g>
        <path class="cls-1" d="m219.71,1198.9l3.81.78,4.06,4.21c9.55,10.08,14.76,14.82,21.66,16.28,4.66.95,9.27.32,10.2-4.24.57-2.77-1.08-5.51-2.55-7.28l4.64-.42c2.25,2.66,3.61,6.08,2.89,9.61-1.34,6.58-8.68,7.98-15.25,6.64-8.47-1.73-14.47-7.22-22.47-15.56l-2.89-3.14-.14-.03-2.8,13.73-5.15-1.05,3.98-19.52Z"/>
        <path class="cls-1" d="m253.79,1236.43l.02-.09-3.22-6.19,4.89.17,4,7.77-.72,3.53-45.86-9.36.82-4,40.07,8.18Z"/>
        <path class="cls-1" d="m230.67,1264.73c-15.59-3.18-23.41-8.8-22.03-15.57,1.22-5.97,10.44-8.3,25.63-5.3,15.38,3.14,22.94,9.29,21.68,15.5-1.32,6.44-10.67,8.36-25.28,5.37Zm2.68-16.75c-11.92-2.43-19.2-1.37-19.96,2.39-.86,4.23,6.13,7.77,17.84,10.16,11.29,2.3,19.09,1.89,19.96-2.39.74-3.62-5.35-7.61-17.84-10.16Z"/>
      </g>
      <g>
        <path class="cls-1" d="m200.59,1301.87l3.86.47,4.39,3.87c10.33,9.28,15.9,13.58,22.9,14.48,4.72.57,9.26-.42,9.83-5.04.34-2.81-1.52-5.41-3.13-7.05l4.59-.8c2.46,2.47,4.09,5.77,3.65,9.34-.81,6.67-8.01,8.65-14.66,7.84-8.58-1.04-15.01-6.03-23.65-13.7l-3.13-2.89-.14-.02-1.69,13.92-5.22-.63,2.4-19.78Z"/>
        <path class="cls-1" d="m198.09,1322.51l3.86.47,4.39,3.87c10.33,9.28,15.9,13.59,22.9,14.48,4.72.57,9.26-.42,9.83-5.04.34-2.81-1.52-5.41-3.13-7.05l4.59-.8c2.46,2.47,4.09,5.77,3.65,9.34-.81,6.67-8.01,8.65-14.66,7.84-8.58-1.04-15.01-6.03-23.65-13.7l-3.13-2.89-.14-.02-1.69,13.91-5.22-.63,2.4-19.78Z"/>
        <path class="cls-1" d="m234.51,1366.63l1.44-11.82-11.79-2.64c.06.73.12,1.42-.02,2.56-.29,2.38-1.37,4.67-3.31,6.37-2.37,2.18-6.61,3.69-12.48,2.98-9.08-1.1-15.28-6.74-14.47-13.46.41-3.38,2.19-6.07,3.8-7.37l4.66,1.63c-1.3,1.15-3.04,3.5-3.38,6.31-.48,3.96,2.97,7.81,9.19,8.56,6.01.68,10.62-1.47,11.38-7.66.21-1.76.1-3.18.02-4.35l22.06,4.71-1.8,14.82-5.29-.64Z"/>
      </g>
      <g>
        <path class="cls-1" d="m189.83,1406.02l3.88.16,4.69,3.5c11.05,8.42,16.95,12.26,23.99,12.59,4.75.19,9.2-1.17,9.39-5.82.11-2.83-1.95-5.27-3.69-6.78l4.52-1.16c2.65,2.27,4.54,5.42,4.39,9.02-.27,6.71-7.29,9.27-13.98,9-8.63-.35-15.44-4.8-24.68-11.76l-3.35-2.63h-.14s-.56,14-.56,14l-5.25-.21.8-19.91Z"/>
        <path class="cls-1" d="m188.46,1439.83l12.73.51.58-14.49,4.17.17,29.3,15.11-.18,4.56-29.07-1.17-.18,4.37-4.96-.2.18-4.37-12.73-.51.16-3.98Zm17.7.71l15.61.63c2.45.1,4.89.25,7.33.44v-.14c-2.69-1.07-4.67-1.92-6.8-2.87l-15.59-8.27h-.14s-.41,10.21-.41,10.21Z"/>
        <path class="cls-1" d="m211.2,1469.24c-15.9-.64-24.52-4.93-24.24-11.83.25-6.09,8.97-9.87,24.45-9.34,15.69.63,24.14,5.49,23.88,11.82-.27,6.57-9.19,9.96-24.09,9.36Zm-.04-16.96c-12.16-.49-19.17,1.73-19.32,5.56-.17,4.32,7.3,6.68,19.24,7.17,11.51.46,19.15-1.2,19.32-5.56.15-3.69-6.51-6.65-19.24-7.17Z"/>
      </g>
      <g>
        <path class="cls-1" d="m230.16,1538.08l-.48-11.89-12.06-.71c.17.71.34,1.38.39,2.53.1,2.4-.6,4.83-2.25,6.82-1.99,2.53-5.94,4.71-11.83,4.95-9.14.37-16.17-4.2-16.44-10.96-.14-3.41,1.19-6.34,2.56-7.89l4.86.86c-1.1,1.34-2.44,3.94-2.32,6.77.16,3.98,4.18,7.23,10.44,6.98,6.04-.29,10.25-3.15,10-9.39-.07-1.77-.42-3.15-.68-4.3l22.53,1.11.6,14.92-5.32.21Z"/>
        <path class="cls-1" d="m213.52,1561.67c-15.9.64-24.84-2.94-25.11-9.85-.25-6.09,8.15-10.56,23.61-11.28,15.69-.63,24.5,3.53,24.76,9.86.27,6.57-8.36,10.67-23.26,11.27Zm-1.4-16.9c-12.16.49-18.97,3.26-18.81,7.1.17,4.32,7.81,6.08,19.75,5.59,11.51-.46,18.99-2.74,18.81-7.1-.15-3.69-7.02-6.11-19.75-5.59Z"/>
      </g>
      <g>
        <path class="cls-1" d="m239.05,1638.17c-.03-.87-.24-1.95-.67-3.11-2.44-6.38-10.08-8.98-17.82-8.76l.02.14c3.11,1.12,5.85,3.4,6.27,6.83.67,5.48-4.8,10.06-13.88,11.16-8.51,1.03-16.84-1.87-17.62-8.31-.8-6.62,6.39-11.9,18.47-13.37,9.15-1.11,16.64.21,21.58,2.7,4.1,2.11,6.88,5.26,8.07,9.08.44,1.2.63,2.24.73,3.01l-5.15.62Zm-26.95,2.06c6.65-.81,10.34-3.82,9.88-7.68-.31-2.53-2.95-4.57-6.45-5.31-.75-.2-1.7-.28-2.85-.14-7.64,1.02-13,4.04-12.47,8.43.44,3.62,5.24,5.51,11.89,4.7Z"/>
        <path class="cls-1" d="m204.72,1646.36c-1,1.33-2.45,4.31-2.1,7.22.65,5.39,6,6.43,9.86,5.91,6.5-.84,8.81-5.08,8.32-9.13l-.28-2.33,4.72-.57.28,2.33c.37,3.05,3.2,6.62,8.7,5.96,3.72-.45,6.81-2.42,6.35-6.28-.3-2.48-2.23-4.66-3.83-5.82l4.44-1.65c1.98,1.4,4.15,4.33,4.56,7.67.74,6.1-4.36,9.52-10,10.21-4.79.58-9.1-.83-11.63-4.39l-.14.02c-.68,3.95-4.59,7.57-11.1,8.36-7.43.9-14.41-2.17-15.31-9.6-.42-3.48.85-6.73,2.17-8.44l5,.55Z"/>
      </g>
      <g>
        <path class="cls-1" d="m260.11,1739.64l-4.09.83-44.48-4.78-.87-4.28,43.27,4.98.14-.03-3.05-14.96,5.15-1.05,3.94,19.28Z"/>
        <path class="cls-1" d="m258.72,1759.47l-2.38-11.66-12.02,1.23c.29.68.56,1.31.79,2.44.48,2.35.18,4.86-1.13,7.09-1.56,2.82-5.1,5.6-10.89,6.78-8.96,1.83-16.63-1.55-17.99-8.18-.68-3.34.15-6.45,1.27-8.2l4.94.07c-.87,1.5-1.77,4.28-1.21,7.06.8,3.9,5.29,6.47,11.43,5.21,5.92-1.26,9.61-4.76,8.36-10.87-.36-1.74-.92-3.05-1.36-4.13l22.42-2.52,2.99,14.63-5.22,1.07Z"/>
      </g>
      <g>
        <path class="cls-1" d="m245.05,1827.49c5.67-1.64,10.34-.55,13.76,2.46l.19-.11c1.39-4,4.85-6.55,8.72-7.67,7.12-2.06,13.13.54,14.65,5.8,1.68,5.81-2.94,10.3-8.54,11.92-3.8,1.1-8.25,1.04-11.94-1.89l-.21.06c-1.13,4.38-4.41,7.82-9.87,9.41-7.82,2.26-14.37-.69-16.02-6.4-1.82-6.27,2.69-11.67,9.26-13.58Zm4.95,16.06c5.46-1.58,7.36-4.88,7.91-9.44-2.54-3.06-6.54-3.95-10.83-2.71-4.6,1.18-7.95,4.65-6.84,8.48,1.06,3.64,5.13,5.01,9.76,3.67Zm19.25-17.67c-4.5,1.3-6.26,4.26-6.64,8.12,2.06,2.2,5.4,3.38,9.48,2.2,3.6-1.04,6.92-3.55,5.86-7.2-.98-3.37-4.83-4.25-8.7-3.13Z"/>
        <path class="cls-1" d="m250.84,1847.46c5.67-1.64,10.34-.54,13.76,2.46l.19-.11c1.39-4,4.85-6.55,8.72-7.67,7.12-2.06,13.13.54,14.65,5.8,1.68,5.81-2.94,10.3-8.54,11.92-3.8,1.1-8.25,1.04-11.94-1.89l-.21.06c-1.13,4.38-4.41,7.82-9.87,9.4-7.82,2.26-14.37-.69-16.02-6.4-1.82-6.27,2.69-11.68,9.26-13.58Zm4.95,16.06c5.46-1.58,7.36-4.88,7.91-9.44-2.54-3.06-6.54-3.95-10.83-2.71-4.6,1.18-7.95,4.65-6.84,8.48,1.05,3.64,5.12,5.01,9.76,3.67Zm19.25-17.67c-4.5,1.3-6.26,4.26-6.64,8.12,2.06,2.2,5.4,3.38,9.48,2.2,3.6-1.04,6.92-3.55,5.86-7.2-.97-3.37-4.83-4.25-8.7-3.13Z"/>
      </g>
      <g>
        <path class="cls-1" d="m303.2,1915.25l-.03-.09-6.03-3.51,4.22-2.47,7.53,4.43,1.28,3.37-43.76,16.6-1.45-3.81,38.24-14.5Z"/>
        <path class="cls-1" d="m298.78,1951.53c-14.88,5.64-24.49,5.08-26.94-1.39-2.16-5.7,4.39-12.6,18.83-18.18,14.68-5.57,24.36-4.41,26.6,1.51,2.33,6.15-4.55,12.77-18.49,18.05Zm-6.68-15.59c-11.38,4.32-16.96,9.1-15.59,12.69,1.53,4.04,9.33,3.29,20.51-.95,10.77-4.09,17.14-8.61,15.59-12.69-1.31-3.46-8.59-3.57-20.51.95Z"/>
        <path class="cls-1" d="m306.15,1970.96c-14.88,5.64-24.49,5.08-26.94-1.39-2.16-5.7,4.39-12.6,18.83-18.18,14.68-5.57,24.36-4.41,26.6,1.51,2.33,6.15-4.55,12.77-18.49,18.05Zm-6.68-15.59c-11.38,4.32-16.96,9.1-15.59,12.69,1.53,4.04,9.33,3.29,20.51-.95,10.77-4.09,17.14-8.61,15.59-12.69-1.31-3.46-8.59-3.57-20.51.95Z"/>
      </g>
      <g>
        <path class="cls-1" d="m341.51,2009.14l-.04-.09-6.29-3.02,4.01-2.8,7.87,3.81,1.54,3.25-42.29,20.06-1.75-3.69,36.95-17.53Z"/>
        <path class="cls-1" d="m350.42,2027.92l-.04-.09-6.29-3.02,4.01-2.8,7.87,3.81,1.54,3.25-42.29,20.06-1.75-3.69,36.95-17.53Z"/>
        <path class="cls-1" d="m325.45,2053.74c-.53,1.58-.96,4.87.3,7.51,2.33,4.9,7.73,4.2,11.22,2.49,5.9-2.85,6.75-7.61,5-11.3l-1.01-2.12,4.29-2.04,1.01,2.12c1.32,2.78,5.13,5.27,10.14,2.89,3.38-1.61,5.7-4.46,4.03-7.97-1.07-2.26-3.6-3.71-5.47-4.31l3.69-2.97c2.33.7,5.31,2.79,6.75,5.83,2.63,5.55-1.12,10.41-6.26,12.85-4.36,2.07-8.89,2.09-12.42-.48l-.13.06c.61,3.96-1.96,8.63-7.88,11.44-6.77,3.21-14.35,2.51-17.56-4.26-1.5-3.17-1.32-6.65-.62-8.69l4.92-1.06Z"/>
      </g>
      <g>
        <path class="cls-1" d="m387.19,2099.72l-.05-.08-6.52-2.5,3.77-3.12,8.15,3.17,1.8,3.12-40.53,23.4-2.04-3.53,35.42-20.45Z"/>
        <path class="cls-1" d="m357.57,2130.23l3.37-1.94,5.83.46c13.84,1.21,20.88,1.31,27.01-2.18,4.12-2.38,7.15-5.9,4.82-9.94-1.42-2.45-4.46-3.41-6.74-3.76l3.19-3.4c3.45.5,6.73,2.16,8.53,5.27,3.36,5.82-1.21,11.73-7.01,15.08-7.48,4.32-15.62,4.2-27.14,3.25l-4.24-.43-.12.07,7.01,12.14-4.55,2.63-9.96-17.25Z"/>
        <path class="cls-1" d="m413.2,2143.62l-5.95-10.31-11.01,4.97c.49.55.95,1.06,1.52,2.06,1.2,2.08,1.71,4.55,1.18,7.08-.58,3.16-3.07,6.93-8.18,9.88-7.92,4.57-16.27,3.79-19.65-2.07-1.7-2.95-1.9-6.17-1.39-8.17l4.71-1.5c-.35,1.7-.32,4.62,1.09,7.08,1.99,3.45,7.06,4.46,12.49,1.33,5.21-3.07,7.61-7.55,4.49-12.96-.89-1.54-1.83-2.6-2.6-3.49l20.46-9.49,7.46,12.93-4.61,2.67Z"/>
      </g>
      <g>
        <path class="cls-1" d="m440.04,2186.17l-.05-.08-6.7-1.97,3.51-3.41,8.38,2.5,2.04,2.96-38.52,26.59-2.32-3.36,33.66-23.23Z"/>
        <path class="cls-1" d="m419.53,2215.66c-.27,1.64-.17,4.96,1.5,7.37,3.08,4.46,8.3,2.9,11.48.65,5.37-3.76,5.44-8.6,3.12-11.96l-1.34-1.94,3.91-2.7,1.34,1.94c1.75,2.53,5.91,4.38,10.47,1.23,3.08-2.13,4.91-5.31,2.7-8.51-1.42-2.05-4.14-3.09-6.09-3.38l3.17-3.53c2.41.32,5.69,1.91,7.6,4.67,3.49,5.06.57,10.46-4.11,13.69-3.97,2.74-8.44,3.49-12.34,1.52l-.12.08c1.23,3.81-.55,8.84-5.94,12.56-6.16,4.25-13.76,4.78-18.02-1.39-1.99-2.88-2.37-6.35-2-8.48l4.68-1.83Z"/>
        <path class="cls-1" d="m434.34,2229c4.86-3.35,9.63-3.79,13.83-2.02l.15-.16c.05-4.24,2.52-7.75,5.84-10.04,6.1-4.21,12.62-3.64,15.73.86,3.44,4.98.47,10.7-4.33,14.01-3.26,2.25-7.49,3.6-11.93,1.99l-.18.12c.31,4.51-1.7,8.82-6.38,12.05-6.7,4.62-13.85,3.9-17.23-1-3.71-5.37-1.14-11.93,4.48-15.81Zm9.78,13.66c4.68-3.23,5.43-6.96,4.52-11.46-3.38-2.1-7.46-1.68-11.13.86-3.99,2.58-6.07,6.93-3.8,10.21,2.15,3.12,6.45,3.13,10.42.39Zm12.66-22.85c-3.85,2.66-4.59,6.03-3.73,9.81,2.65,1.44,6.2,1.5,9.69-.92,3.08-2.13,5.44-5.56,3.28-8.68-1.99-2.88-5.93-2.5-9.24-.21Z"/>
      </g>
      <g>
        <path class="cls-1" d="m499.67,2268.32l-.06-.07-6.83-1.42,3.22-3.68,8.55,1.82,2.28,2.79-36.25,29.6-2.58-3.16,31.68-25.87Z"/>
        <path class="cls-1" d="m519.24,2291.38l-7.53-9.22-10.07,6.68c.57.47,1.1.9,1.83,1.79,1.52,1.86,2.42,4.22,2.3,6.8-.07,3.22-1.92,7.33-6.49,11.06-7.08,5.78-15.45,6.36-19.73,1.11-2.16-2.64-2.86-5.78-2.69-7.85l4.4-2.23c-.07,1.73.42,4.61,2.21,6.81,2.52,3.09,7.69,3.27,12.54-.7,4.65-3.86,6.3-8.68,2.35-13.51-1.12-1.38-2.23-2.27-3.12-3.03l18.68-12.65,9.44,11.56-4.13,3.37Z"/>
        <path class="cls-1" d="m520.11,2320.23c-12.33,10.06-21.62,12.57-25.99,7.22-3.86-4.72.17-13.34,12.1-23.21,12.16-9.93,21.71-11.9,25.71-6.99,4.16,5.1-.28,13.55-11.82,22.98Zm-11.27-12.67c-9.43,7.7-13.2,14-10.77,16.98,2.73,3.35,9.89.16,19.15-7.39,8.92-7.29,13.54-13.59,10.77-16.98-2.34-2.86-9.28-.67-19.15,7.39Z"/>
      </g>
      <g>
        <path class="cls-1" d="m565.68,2345.16l-.07-.07-6.92-.87,2.91-3.93,8.67,1.12,2.49,2.6-33.75,32.42-2.83-2.94,29.5-28.33Z"/>
        <path class="cls-1" d="m587.1,2365.38c-.55-.67-1.36-1.42-2.4-2.09-5.78-3.63-13.46-1.12-19.51,3.7l.1.1c3.16-.97,6.72-.8,9.12,1.69,3.82,3.98,2.21,10.93-4.39,17.26-6.18,5.94-14.59,8.62-19.07,3.95-4.62-4.81-2.04-13.35,6.74-21.78,6.65-6.38,13.42-9.83,18.87-10.81,4.55-.77,8.66.07,11.9,2.41,1.07.7,1.86,1.41,2.39,1.97l-3.74,3.59Zm-20.31,17.84c4.83-4.64,5.98-9.27,3.28-12.07-1.76-1.83-5.11-1.89-8.34-.37-.72.29-1.53.8-2.36,1.6-5.49,5.41-7.96,11.04-4.9,14.23,2.53,2.63,7.49,1.26,12.32-3.38Z"/>
        <path class="cls-1" d="m564.57,2392.54c0,1.66.63,4.92,2.66,7.03,3.76,3.91,8.66,1.53,11.43-1.2,4.69-4.57,3.99-9.36,1.16-12.3l-1.63-1.7,3.43-3.29,1.63,1.7c2.13,2.22,6.54,3.37,10.53-.47,2.7-2.59,3.99-6.03,1.3-8.83-1.73-1.8-4.59-2.38-6.56-2.35l2.56-3.99c2.43-.07,5.92.97,8.25,3.39,4.26,4.43,2.24,10.23-1.86,14.17-3.48,3.34-7.77,4.8-11.94,3.48l-.1.1c1.83,3.57.87,8.81-3.85,13.35-5.4,5.19-12.82,6.92-18.01,1.52-2.43-2.53-3.36-5.89-3.34-8.05l4.33-2.56Z"/>
      </g>
      <g>
        <path class="cls-1" d="m637.71,2416.58l-.07-.06-6.97-.31,2.59-4.15,8.73.42,2.69,2.39-31.04,35.03-3.05-2.71,27.12-30.61Z"/>
        <path class="cls-1" d="m665.49,2433.29l-2.77,3.13-38.44,22.9-3.27-2.9,37.59-22.01.1-.11-11.43-10.12,3.49-3.94,14.73,13.05Z"/>
        <path class="cls-1" d="m676.29,2449.98l-8.91-7.89-8.87,8.21c.63.37,1.23.71,2.1,1.47,1.8,1.59,3.07,3.78,3.36,6.34.45,3.19-.72,7.54-4.63,11.96-6.06,6.85-14.23,8.75-19.3,4.26-2.55-2.26-3.75-5.25-3.91-7.31l3.99-2.91c.21,1.72,1.16,4.49,3.28,6.37,2.98,2.64,8.11,1.99,12.27-2.7,3.98-4.56,4.83-9.58.16-13.71-1.33-1.18-2.56-1.88-3.57-2.49l16.41-15.48,11.17,9.9-3.53,3.99Z"/>
      </g>
      <g>
        <path class="cls-1" d="m715.21,2481.93l-.08-.06-6.98.25,2.25-4.35,8.74-.28,2.88,2.16-28.12,37.42-3.26-2.45,24.57-32.7Z"/>
        <path class="cls-1" d="m706.76,2511.88c3.55-4.72,7.94-6.65,12.48-6.3l.09-.2c-1.29-4.03-.06-8.15,2.36-11.38,4.46-5.93,10.82-7.45,15.2-4.16,4.84,3.63,3.84,10,.33,14.66-2.38,3.17-5.97,5.79-10.68,5.66l-.13.17c1.72,4.18,1.18,8.9-2.24,13.45-4.89,6.5-11.9,8.08-16.66,4.51-5.22-3.92-4.86-10.95-.75-16.42Zm13.6,9.86c3.42-4.55,2.95-8.32.65-12.3-3.87-.93-7.6.77-10.29,4.34-2.97,3.71-3.56,8.49-.38,10.89,3.03,2.28,7.11.93,10.01-2.93Zm4.77-25.69c-2.81,3.74-2.44,7.17-.43,10.48,2.97.52,6.35-.54,8.9-3.94,2.25-2.99,3.4-7,.36-9.27-2.8-2.11-6.41-.5-8.84,2.73Z"/>
        <path class="cls-1" d="m723.37,2524.36c3.55-4.72,7.94-6.65,12.48-6.3l.09-.2c-1.29-4.04-.06-8.15,2.36-11.38,4.46-5.93,10.82-7.45,15.2-4.16,4.84,3.63,3.84,10,.33,14.66-2.38,3.17-5.97,5.78-10.68,5.67l-.13.17c1.72,4.18,1.18,8.9-2.24,13.45-4.89,6.5-11.9,8.08-16.66,4.51-5.22-3.92-4.86-10.95-.75-16.42Zm13.6,9.86c3.42-4.55,2.95-8.32.65-12.3-3.87-.92-7.6.77-10.29,4.34-2.97,3.71-3.56,8.49-.38,10.89,3.03,2.28,7.11.93,10.01-2.93Zm4.77-25.69c-2.81,3.74-2.44,7.17-.43,10.48,2.97.52,6.35-.54,8.9-3.94,2.25-2.99,3.4-7,.36-9.27-2.8-2.1-6.41-.5-8.84,2.73Z"/>
      </g>
      <g>
        <path class="cls-1" d="m768.11,2570.59l2.08-3.29,5.38-2.31c12.82-5.36,19.09-8.54,22.9-14.48,2.54-4.02,3.59-8.55-.35-11.04-2.39-1.51-5.54-.95-7.72-.19l1.25-4.49c3.29-1.16,6.96-1.22,10.01.7,5.68,3.59,4.38,10.95.8,16.61-4.62,7.3-11.88,10.97-22.52,15.49l-3.96,1.59-.08.12,11.85,7.49-2.81,4.44-16.84-10.65Z"/>
        <path class="cls-1" d="m815.98,2572.57c-8.51,13.45-16.53,18.77-22.37,15.08-5.15-3.26-4.06-12.71,4.13-25.84,8.39-13.27,16.82-18.16,22.18-14.77,5.56,3.52,4.03,12.94-3.94,25.54Zm-14.71-8.45c-6.5,10.29-8.09,17.46-4.84,19.51,3.65,2.31,9.44-2.98,15.83-13.08,6.16-9.74,8.53-17.18,4.84-19.51-3.12-1.97-9.01,2.31-15.83,13.08Z"/>
        <path class="cls-1" d="m833.54,2583.68c-8.51,13.45-16.53,18.77-22.37,15.08-5.15-3.26-4.06-12.71,4.13-25.84,8.39-13.27,16.82-18.16,22.18-14.77,5.56,3.51,4.03,12.94-3.94,25.54Zm-14.71-8.45c-6.5,10.29-8.09,17.46-4.84,19.51,3.65,2.31,9.44-2.98,15.83-13.08,6.16-9.74,8.54-17.18,4.84-19.51-3.12-1.98-9.01,2.31-15.83,13.08Z"/>
      </g>
      <g>
        <path class="cls-1" d="m878.44,2635.83l5.92-11.29-12.84-6.74,1.94-3.7,26.21-19.99,4.04,2.12-13.52,25.76,3.87,2.03-2.31,4.4-3.87-2.03-5.92,11.29-3.53-1.85Zm8.23-15.68l7.26-13.84c1.14-2.17,2.32-4.31,3.54-6.44l-.13-.07c-2.12,1.98-3.74,3.41-5.51,4.92l-14.15,10.54-.07.13,9.05,4.75Z"/>
        <path class="cls-1" d="m914.75,2627.89c-7.4,14.09-14.96,20.04-21.08,16.83-5.4-2.83-5.07-12.34,2.04-26.09,7.3-13.9,15.31-19.45,20.92-16.51,5.82,3.06,5.06,12.58-1.87,25.77Zm-15.34-7.24c-5.66,10.77-6.66,18.06-3.26,19.84,3.83,2.01,9.17-3.73,14.72-14.31,5.35-10.2,7.12-17.81,3.26-19.84-3.27-1.72-8.8,3.03-14.72,14.31Z"/>
      </g>
      <g>
        <path class="cls-1" d="m994.12,2645.17l-10.95-4.67-5.82,10.59c.72.15,1.39.28,2.45.73,2.21.94,4.11,2.61,5.19,4.95,1.43,2.88,1.71,7.38-.61,12.81-3.58,8.41-10.73,12.81-16.95,10.15-3.14-1.34-5.22-3.79-6.03-5.7l2.86-4.02c.74,1.57,2.52,3.89,5.12,5,3.67,1.56,8.33-.68,10.78-6.44,2.33-5.58,1.55-10.61-4.19-13.06-1.63-.7-3.03-.98-4.17-1.23l10.66-19.88,13.73,5.85-2.09,4.9Z"/>
        <path class="cls-1" d="m1008.3,2670.31c-6.24,14.64-13.3,21.18-19.66,18.47-5.61-2.39-6.05-11.89-.07-26.17,6.15-14.44,13.69-20.62,19.52-18.14,6.05,2.58,6.05,12.13.21,25.84Zm-15.87-5.98c-4.77,11.2-5.18,18.53-1.65,20.04,3.97,1.69,8.84-4.45,13.52-15.45,4.52-10.6,5.67-18.33,1.65-20.04-3.4-1.45-8.53,3.72-13.52,15.45Z"/>
      </g>
      <g>
        <path class="cls-1" d="m1088.4,2680.05c-.8-.34-1.87-.62-3.1-.73-6.81-.53-12.43,5.26-15.56,12.34l.14.05c2.35-2.33,5.58-3.83,8.86-2.74,5.24,1.75,7.03,8.65,4.14,17.32-2.71,8.13-8.91,14.41-15.06,12.36-6.33-2.11-8.01-10.87-4.16-22.42,2.92-8.74,7.32-14.94,11.69-18.34,3.67-2.8,7.7-3.96,11.66-3.4,1.28.12,2.3.39,3.03.63l-1.64,4.92Zm-9.69,25.23c2.12-6.35.98-10.98-2.7-12.21-2.41-.81-5.4.7-7.56,3.55-.5.59-.98,1.42-1.34,2.51-2.35,7.34-1.92,13.48,2.27,14.88,3.46,1.16,7.22-2.37,9.34-8.72Z"/>
        <path class="cls-1" d="m1105.06,2705.04c-5.04,15.09-11.56,22.18-18.11,19.99-5.78-1.93-6.98-11.37-2.17-26.08,4.97-14.89,11.99-21.66,18-19.65,6.24,2.08,7.01,11.6,2.29,25.74Zm-16.3-4.68c-3.85,11.54-3.67,18.89-.03,20.11,4.1,1.37,8.45-5.15,12.24-16.49,3.65-10.93,4.17-18.72.03-20.11-3.51-1.17-8.2,4.4-12.24,16.49Z"/>
      </g>
      <g>
        <path class="cls-1" d="m1189.04,2704.53l-1,4.06-23.39,38.14-4.24-1.04,23.05-36.96.03-.14-14.82-3.65,1.26-5.1,19.11,4.71Z"/>
        <path class="cls-1" d="m1204.21,2731.85c-3.81,15.45-9.73,23.04-16.44,21.38-5.92-1.46-7.88-10.77-4.27-25.82,3.76-15.24,10.21-22.55,16.36-21.04,6.39,1.57,7.92,11,4.35,25.47Zm-16.62-3.36c-2.91,11.82-2.14,19.12,1.58,20.04,4.19,1.03,8.01-5.81,10.87-17.42,2.76-11.19,2.66-19-1.59-20.04-3.59-.88-7.82,5.04-10.87,17.42Z"/>
      </g>
      <g>
        <path class="cls-1" d="m1262.01,2755.72c.95-5.83,3.94-9.57,8.12-11.37v-.22c-3.03-2.97-3.85-7.19-3.21-11.17,1.19-7.32,6.12-11.63,11.52-10.75,5.97.97,8.04,7.07,7.11,12.83-.63,3.91-2.6,7.9-6.82,9.98l-.03.21c3.47,2.9,5.18,7.33,4.27,12.95-1.31,8.03-6.78,12.69-12.65,11.73-6.44-1.05-9.39-7.44-8.3-14.19Zm16.63,2.41c.91-5.62-1.25-8.74-5.14-11.19-3.86.98-6.38,4.22-7.09,8.62-.9,4.67.79,9.17,4.73,9.81,3.74.61,6.73-2.48,7.5-7.24Zm-7.71-24.96c-.75,4.62,1.17,7.48,4.49,9.48,2.87-.92,5.37-3.43,6.05-7.62.6-3.7-.24-7.77-3.99-8.38-3.46-.56-5.91,2.54-6.56,6.52Z"/>
        <path class="cls-1" d="m1305.3,2750.57c-2.55,15.71-7.85,23.75-14.67,22.64-6.02-.98-8.72-10.1-6.33-25.39,2.52-15.49,8.36-23.3,14.61-22.28,6.49,1.06,8.78,10.33,6.39,25.04Zm-16.84-2.01c-1.95,12.01-.6,19.23,3.19,19.85,4.26.69,7.51-6.44,9.43-18.24,1.85-11.37,1.12-19.15-3.19-19.85-3.65-.59-7.39,5.66-9.43,18.24Z"/>
      </g>
      <g>
        <path class="cls-1" d="m1367.01,2777.43c.9.22,1.96.16,3.41.06,2.48-.31,4.9-1.63,6.87-4,2.28-2.63,4.1-6.6,5.12-12.08h-.14c-1.98,3.01-4.62,4.67-7.73,4.42-5.6-.45-8.68-7.06-8.03-15.02.71-8.83,5.6-16.24,11.96-15.72,6.36.51,9.66,8.58,8.7,20.5-.83,10.26-3.71,17.25-7.13,21.46-2.68,3.32-6.15,5.21-9.55,5.51-1.56.24-2.91.2-3.9.05l.42-5.17Zm3.7-26.72c-.47,5.81,1.54,10.09,5.18,10.39,2.82.23,5.19-1.68,6.52-4.39.29-.55.49-1.26.57-2.27.64-7.97-.83-14.22-5.23-14.58-3.59-.29-6.51,4.24-7.04,10.84Z"/>
        <path class="cls-1" d="m1407.52,2761.2c-1.28,15.86-5.91,24.3-12.8,23.75-6.08-.49-9.5-9.36-8.35-24.8,1.26-15.65,6.46-23.9,12.77-23.39,6.56.53,9.58,9.59,8.38,24.44Zm-16.95-.65c-.98,12.13.95,19.22,4.78,19.53,4.31.35,6.97-7.02,7.93-18.94.93-11.48-.43-19.18-4.78-19.53-3.68-.3-6.91,6.23-7.93,18.94Z"/>
      </g>
      <g>
        <path class="cls-1" d="m1467.52,2746.46h-.1l-5.42,4.39-.82-4.82,6.82-5.47h3.6v46.8h-4.08v-40.9Z"/>
        <path class="cls-1" d="m1499.88,2763.46c0,15.91-3.94,24.7-10.85,24.7-6.1,0-10.22-8.57-10.32-24.05,0-15.7,4.51-24.34,10.85-24.34s10.32,8.79,10.32,23.69Zm-16.95.72c0,12.17,2.5,19.08,6.34,19.08,4.32,0,6.38-7.56,6.38-19.51s-1.97-19.08-6.34-19.08c-3.7,0-6.38,6.77-6.38,19.51Z"/>
        <path class="cls-1" d="m1520.66,2763.46c0,15.91-3.94,24.7-10.85,24.7-6.1,0-10.22-8.57-10.32-24.05,0-15.7,4.51-24.34,10.85-24.34s10.32,8.79,10.32,23.69Zm-16.95.72c0,12.17,2.5,19.08,6.34,19.08,4.32,0,6.38-7.56,6.38-19.51s-1.97-19.08-6.34-19.08c-3.7,0-6.38,6.77-6.38,19.51Z"/>
      </g>
      <g>
        <path class="cls-1" d="m1568.94,2743.98h-.1s-5.05,4.82-5.05,4.82l-1.2-4.74,6.35-6,3.59-.29,3.77,46.65-4.07.33-3.29-40.77Z"/>
        <path class="cls-1" d="m1589.66,2742.31h-.1s-5.05,4.82-5.05,4.82l-1.2-4.74,6.35-6,3.59-.29,3.77,46.65-4.07.33-3.29-40.77Z"/>
        <path class="cls-1" d="m1623.27,2756.64c1.28,15.86-1.94,24.93-8.83,25.49-6.08.49-10.88-7.72-12.22-23.14-1.26-15.65,2.54-24.62,8.86-25.13,6.55-.53,10.99,7.93,12.19,22.78Zm-16.83,2.08c.98,12.13,4.02,18.82,7.85,18.51,4.31-.35,5.76-8.05,4.79-19.96-.93-11.48-3.5-18.86-7.85-18.51-3.68.3-5.82,7.26-4.79,19.96Z"/>
      </g>
      <g>
        <path class="cls-1" d="m1669.72,2733.37l-.1.02-4.65,5.21-1.58-4.63,5.85-6.5,3.55-.58,7.51,46.2-4.03.66-6.56-40.37Z"/>
        <path class="cls-1" d="m1687.75,2771.88l-.62-3.84,2.5-5.29c6.04-12.51,8.62-19.06,7.54-26.03-.76-4.69-2.98-8.78-7.58-8.03-2.8.45-4.77,2.96-5.9,4.97l-2.04-4.19c1.69-3.05,4.4-5.53,7.96-6.11,6.63-1.08,10.54,5.29,11.61,11.9,1.39,8.53-1.62,16.09-6.58,26.53l-1.91,3.81.02.14,13.84-2.25.84,5.19-19.66,3.2Z"/>
        <path class="cls-1" d="m1724.9,2741.62c2.55,15.71.08,25.01-6.75,26.12-6.02.98-11.47-6.82-14.04-22.08-2.52-15.49.55-24.75,6.8-25.76,6.49-1.05,11.6,7.02,13.99,21.73Zm-16.61,3.43c1.95,12.01,5.53,18.43,9.32,17.82,4.26-.69,5.09-8.49,3.17-20.29-1.85-11.37-5-18.52-9.32-17.82-3.65.59-5.22,7.71-3.17,20.29Z"/>
      </g>
      <g>
        <path class="cls-1" d="m1769.41,2714.61l-.09.02-4.21,5.56-1.95-4.49,5.31-6.95,3.5-.86,11.2,45.44-3.96.98-9.79-39.71Z"/>
        <path class="cls-1" d="m1789.71,2744.24c1.44.83,4.57,1.91,7.42,1.21,5.27-1.3,5.66-6.73,4.68-10.5-1.62-6.35-6.11-8.14-10.07-7.16l-2.28.56-1.14-4.61,2.28-.56c2.98-.74,6.19-3.97,4.86-9.36-.9-3.63-3.23-6.47-7-5.54-2.42.6-4.36,2.78-5.32,4.5l-2.17-4.21c1.15-2.14,3.8-4.64,7.06-5.45,5.97-1.47,9.98,3.18,11.34,8.7,1.16,4.68.27,9.13-2.96,12.07l.03.14c4,.2,8.07,3.65,9.64,10.01,1.79,7.27-.41,14.56-7.69,16.36-3.4.84-6.78-.03-8.63-1.13l-.05-5.03Z"/>
        <path class="cls-1" d="m1825.07,2718.39c3.81,15.45,2.09,24.92-4.62,26.58-5.92,1.46-11.98-5.87-15.78-20.88-3.76-15.24-1.44-24.71,4.71-26.23,6.39-1.57,12.12,6.06,15.69,20.53Zm-16.28,4.75c2.91,11.82,6.99,17.93,10.72,17.01,4.19-1.03,4.39-8.87,1.53-20.47-2.76-11.19-6.48-18.06-10.72-17.01-3.59.88-4.58,8.1-1.53,20.47Z"/>
      </g>
      <g>
        <path class="cls-1" d="m1867.27,2688.01l-.09.03-3.75,5.88-2.3-4.32,4.73-7.35,3.42-1.14,14.82,44.39-3.87,1.29-12.95-38.79Z"/>
        <path class="cls-1" d="m1903.62,2718.99l-4.04-12.09-13.75,4.59-1.32-3.96,3.74-32.75,4.33-1.44,9.21,27.59,4.14-1.38,1.57,4.71-4.14,1.38,4.04,12.09-3.78,1.26Zm-5.61-16.8l-4.95-14.82c-.77-2.32-1.5-4.66-2.19-7.01l-.14.05c-.04,2.9-.13,5.05-.27,7.38l-2.2,17.51.04.14,9.7-3.24Z"/>
        <path class="cls-1" d="m1923.05,2687.3c5.04,15.09,4.09,24.67-2.47,26.86-5.78,1.93-12.41-4.89-17.41-19.54-4.97-14.89-3.43-24.52,2.58-26.52,6.24-2.08,12.57,5.06,17.29,19.2Zm-15.84,6.05c3.85,11.54,8.41,17.31,12.05,16.09,4.1-1.37,3.66-9.19-.12-20.53-3.65-10.93-7.91-17.48-12.05-16.09-3.51,1.17-3.91,8.44.12,20.53Z"/>
      </g>
      <g>
        <path class="cls-1" d="m1962.62,2653.53l-.09.04-3.27,6.17-2.64-4.12,4.13-7.71,3.31-1.41,18.35,43.06-3.75,1.6-16.03-37.63Z"/>
        <path class="cls-1" d="m1990.22,2641.14l-10.95,4.67,3.61,11.53c.61-.42,1.17-.81,2.23-1.26,2.21-.94,4.73-1.15,7.17-.31,3.07.96,6.51,3.88,8.82,9.31,3.58,8.41,1.8,16.61-4.42,19.26-3.13,1.34-6.35,1.14-8.28.4l-.92-4.85c1.64.55,4.55.88,7.15-.23,3.67-1.56,5.28-6.47,2.82-12.24-2.42-5.55-6.58-8.47-12.32-6.02-1.63.7-2.8,1.51-3.78,2.16l-6.95-21.46,13.73-5.85,2.09,4.9Z"/>
        <path class="cls-1" d="m2018.17,2648.33c6.24,14.64,6.06,24.27-.3,26.97-5.61,2.39-12.77-3.88-18.92-18.08-6.15-14.44-5.39-24.16.44-26.64,6.05-2.58,12.94,4.04,18.78,17.75Zm-15.31,7.3c4.77,11.2,9.78,16.58,13.31,15.07,3.97-1.69,2.91-9.46-1.78-20.46-4.52-10.6-9.29-16.78-13.31-15.07-3.4,1.45-3.22,8.73,1.78,20.45Z"/>
      </g>
      <g>
        <path class="cls-1" d="m2054.89,2611.59l-.09.04-2.76,6.41-2.96-3.89,3.49-8.01,3.19-1.67,21.75,41.44-3.61,1.9-19.01-36.21Z"/>
        <path class="cls-1" d="m2080.28,2596.64c-.8.34-1.74.91-2.67,1.73-5.1,4.55-4.82,12.61-1.88,19.77l.13-.07c-.05-3.31,1.1-6.68,4.16-8.29,4.89-2.57,11.11.92,15.36,9.02,3.98,7.59,4.22,16.41-1.52,19.42-5.91,3.1-13.39-1.75-19.05-12.53-4.28-8.16-5.71-15.63-5.13-21.13.52-4.58,2.48-8.29,5.63-10.76.97-.84,1.87-1.39,2.55-1.75l2.41,4.59Zm11.49,24.47c-3.11-5.93-7.24-8.32-10.68-6.51-2.25,1.18-3.23,4.38-2.68,7.91.08.77.34,1.69.88,2.71,3.67,6.78,8.39,10.72,12.3,8.67,3.23-1.7,3.29-6.85.18-12.78Z"/>
        <path class="cls-1" d="m2109.84,2601.95c7.4,14.09,7.99,23.7,1.87,26.91-5.4,2.83-13.04-2.84-20.32-16.5-7.29-13.9-7.31-23.65-1.7-26.59,5.82-3.06,13.22,2.98,20.15,16.18Zm-14.67,8.51c5.66,10.77,11.08,15.74,14.48,13.95,3.83-2.01,2.14-9.66-3.42-20.25-5.35-10.2-10.61-15.98-14.48-13.95-3.27,1.72-2.51,8.96,3.42,20.25Z"/>
      </g>
      <g>
        <path class="cls-1" d="m2163.38,2589.43c1.63.33,4.95.37,7.42-1.2,4.58-2.9,3.23-8.18,1.12-11.44-3.54-5.51-8.37-5.78-11.82-3.6l-1.99,1.26-2.54-4.02,1.99-1.26c2.6-1.64,4.61-5.73,1.65-10.41-2-3.17-5.11-5.12-8.4-3.04-2.11,1.33-3.25,4.02-3.62,5.95l-3.4-3.31c.42-2.39,2.13-5.61,4.97-7.4,5.19-3.28,10.47-.15,13.51,4.66,2.58,4.08,3.15,8.57,1.02,12.39l.08.12c3.86-1.08,8.81.91,12.31,6.44,4,6.33,4.22,13.95-2.11,17.95-2.96,1.87-6.44,2.12-8.55,1.66l-1.64-4.75Z"/>
        <path class="cls-1" d="m2188.73,2553.72c8.51,13.45,9.87,22.98,4.03,26.67-5.15,3.26-13.22-1.78-21.58-14.81-8.39-13.27-9.19-22.98-3.84-26.37,5.56-3.52,13.42,1.91,21.38,14.51Zm-13.94,9.67c6.5,10.29,12.31,14.79,15.55,12.74,3.65-2.31,1.36-9.8-5.03-19.9-6.16-9.74-11.86-15.08-15.55-12.74-3.12,1.97-1.78,9.13,5.03,19.9Z"/>
      </g>
      <g>
        <path class="cls-1" d="m2249.79,2531.51c1.65.2,4.96-.03,7.3-1.79,4.34-3.26,2.57-8.41.19-11.49-3.98-5.21-8.81-5.09-12.07-2.64l-1.88,1.41-2.86-3.8,1.88-1.41c2.46-1.85,4.14-6.08.81-10.51-2.25-2.99-5.5-4.69-8.61-2.35-2,1.5-2.92,4.26-3.13,6.22l-3.65-3.02c.22-2.42,1.67-5.76,4.36-7.78,4.91-3.69,10.42-.99,13.84,3.56,2.9,3.86,3.83,8.29,2.01,12.27l.09.11c3.76-1.38,8.85.19,12.79,5.43,4.5,5.99,5.33,13.56-.66,18.06-2.8,2.11-6.25,2.63-8.39,2.34l-2.02-4.61Z"/>
        <path class="cls-1" d="m2262.52,2516.18c-3.55-4.72-4.17-9.47-2.58-13.74l-.17-.14c-4.23.12-7.85-2.21-10.27-5.43-4.46-5.93-4.14-12.47.23-15.75,4.83-3.63,10.67-.9,14.17,3.76,2.38,3.17,3.9,7.34,2.47,11.84l.13.17c4.49-.49,8.88,1.35,12.29,5.89,4.89,6.51,4.45,13.68-.31,17.25-5.22,3.92-11.87,1.62-15.98-3.84Zm-10.09-22.05c2.81,3.74,6.21,4.34,9.95,3.33,1.33-2.71,1.25-6.25-1.3-9.65-2.25-2.99-5.78-5.21-8.81-2.93-2.8,2.11-2.26,6.02.16,9.25Zm23.35,11.73c-3.42-4.55-7.17-5.15-11.63-4.05-1.96,3.46-1.38,7.52,1.31,11.09,2.74,3.88,7.17,5.78,10.35,3.39,3.03-2.28,2.87-6.57-.03-10.43Z"/>
      </g>
      <g>
        <path class="cls-1" d="m2345.18,2464.25l-8.45-9.54-10.85,9.61-2.77-3.13-9.4-31.6,3.41-3.02,19.29,21.78,3.27-2.9,3.29,3.72-3.27,2.9,8.45,9.54-2.98,2.64Zm-11.75-13.26l-10.36-11.7c-1.62-1.83-3.21-3.7-4.76-5.59l-.11.1c1.1,2.68,1.86,4.7,2.64,6.89l4.84,16.97.1.11,7.65-6.78Z"/>
        <path class="cls-1" d="m2337.4,2415.73l-8.91,7.89,7.08,9.79c.44-.58.85-1.14,1.71-1.9,1.8-1.59,4.12-2.59,6.7-2.57,3.22-.06,7.4,1.62,11.32,6.04,6.06,6.85,6.97,15.18,1.9,19.67-2.55,2.26-5.66,3.09-7.73,3l-2.41-4.31c1.73,0,4.59-.61,6.71-2.48,2.98-2.64,2.96-7.81-1.2-12.5-4.05-4.5-8.92-5.95-13.6-1.81-1.33,1.18-2.18,2.32-2.9,3.24l-13.39-18.15,11.17-9.9,3.53,3.99Z"/>
      </g>
      <g>
        <path class="cls-1" d="m2394.91,2359.3l-8.25,8.58,7.84,9.2c.39-.62.76-1.2,1.55-2.03,1.66-1.73,3.9-2.91,6.47-3.1,3.2-.32,7.51,1.02,11.76,5.11,6.6,6.33,8.17,14.57,3.48,19.45-2.36,2.46-5.39,3.54-7.46,3.61l-2.75-4.1c1.73-.14,4.53-.97,6.49-3.02,2.76-2.87,2.32-8.03-2.2-12.37-4.4-4.16-9.37-5.21-13.7-.71-1.23,1.28-1.99,2.49-2.63,3.47l-14.81-17.02,10.34-10.77,3.84,3.69Z"/>
        <path class="cls-1" d="m2421.77,2380.71c1.66-.07,4.89-.83,6.92-2.94,3.76-3.91,1.18-8.72-1.65-11.37-4.76-4.5-9.51-3.61-12.34-.67l-1.63,1.7-3.43-3.29,1.63-1.7c2.13-2.21,3.11-6.67-.89-10.51-2.7-2.59-6.19-3.75-8.88-.94-1.73,1.8-2.2,4.68-2.09,6.65l-4.09-2.4c-.17-2.42.73-5.96,3.06-8.38,4.26-4.43,10.13-2.65,14.23,1.29,3.48,3.34,5.11,7.57,3.96,11.79l.1.1c3.49-1.97,8.77-1.23,13.49,3.31,5.4,5.19,7.43,12.53,2.25,17.93-2.43,2.53-5.75,3.6-7.9,3.66l-2.73-4.22Z"/>
      </g>
      <g>
        <path class="cls-1" d="m2461.06,2283.54c-.6.62-1.24,1.52-1.78,2.64-2.91,6.18.51,13.49,6.02,18.92l.09-.11c-1.35-3.02-1.6-6.58.58-9.25,3.49-4.28,10.58-3.51,17.66,2.28,6.64,5.42,10.31,13.44,6.21,18.46-4.22,5.17-13.01,3.63-22.43-4.06-7.14-5.83-11.38-12.14-13-17.43-1.32-4.42-.97-8.6.96-12.11.57-1.15,1.18-2.01,1.66-2.61l4.02,3.28Zm20.16,18.01c-5.19-4.23-9.92-4.81-12.38-1.8-1.61,1.97-1.26,5.3.64,8.33.38.68.98,1.42,1.87,2.15,6.03,4.8,11.92,6.57,14.72,3.15,2.31-2.83.34-7.59-4.85-11.83Z"/>
        <path class="cls-1" d="m2490.33,2276.83c12.33,10.06,16.64,18.67,12.27,24.03-3.86,4.72-13.1,2.5-25.16-7.22-12.16-9.93-16-18.89-11.99-23.8,4.16-5.09,13.33-2.44,24.88,6.99Zm-10.16,13.58c9.43,7.7,16.36,10.13,18.79,7.16,2.73-3.35-1.82-9.73-11.08-17.29-8.92-7.29-16.03-10.54-18.79-7.16-2.34,2.86,1.21,9.23,11.08,17.29Z"/>
      </g>
      <g>
        <path class="cls-1" d="m2521.82,2202.63c-.55.67-1.12,1.62-1.56,2.77-2.4,6.39,1.59,13.41,7.53,18.38l.08-.12c-1.58-2.9-2.13-6.43-.16-9.27,3.13-4.54,10.26-4.35,17.79.85,7.05,4.87,11.36,12.57,7.68,17.9-3.79,5.49-12.67,4.67-22.69-2.24-7.58-5.24-12.32-11.18-14.36-16.33-1.67-4.3-1.66-8.5-.02-12.14.47-1.19,1.01-2.1,1.45-2.73l4.27,2.94Zm21.54,16.33c-5.51-3.8-10.28-4-12.48-.8-1.45,2.09-.83,5.38,1.3,8.25.43.65,1.09,1.34,2.04,1.99,6.39,4.3,12.41,5.59,14.92,1.96,2.07-3-.27-7.59-5.78-11.4Z"/>
        <path class="cls-1" d="m2548.36,2217.8c-4.86-3.35-6.96-7.66-6.79-12.21l-.2-.08c-3.98,1.45-8.14.39-11.46-1.9-6.1-4.21-7.88-10.51-4.77-15.02,3.44-4.98,9.84-4.24,14.63-.92,3.26,2.25,6.02,5.73,6.09,10.44l.18.12c4.1-1.89,8.85-1.54,13.53,1.7,6.7,4.62,8.55,11.56,5.17,16.46-3.71,5.37-10.75,5.3-16.37,1.41Zm-16.55-17.72c3.85,2.66,7.26,2.15,10.49,0,.4-2.99-.8-6.32-4.29-8.74-3.08-2.13-7.13-3.11-9.28,0-1.99,2.88-.24,6.43,3.08,8.72Zm25.86,3.73c-4.68-3.23-8.43-2.61-12.31-.16-.77,3.9,1.08,7.57,4.75,10.1,3.83,2.82,8.63,3.21,10.89-.06,2.15-3.12.64-7.14-3.33-9.88Z"/>
      </g>
      <g>
        <path class="cls-1" d="m2573.46,2112.69l3.62,2.09,30.12,33.08-2.18,3.78-29.09-32.43-.12-.07-7.63,13.22-4.55-2.63,9.84-17.04Z"/>
        <path class="cls-1" d="m2587.65,2098.77l-5.95,10.31,9.81,7.05c.24-.7.45-1.35,1.02-2.35,1.2-2.08,3.09-3.76,5.54-4.56,3.03-1.08,7.53-.81,12.65,2.15,7.92,4.57,11.42,12.19,8.04,18.05-1.71,2.95-4.39,4.73-6.38,5.29l-3.65-3.33c1.65-.55,4.17-2.03,5.58-4.48,1.99-3.45.33-8.35-5.1-11.48-5.26-2.98-10.35-2.81-13.47,2.59-.89,1.54-1.33,2.89-1.72,3.99l-18.45-12.98,7.46-12.93,4.61,2.66Z"/>
      </g>
      <g>
        <path class="cls-1" d="m2642.9,2056.92c-5.33-2.53-8.1-6.45-8.67-10.96l-.21-.05c-3.69,2.07-7.97,1.69-11.62-.04-6.7-3.18-9.46-9.11-7.12-14.06,2.59-5.46,9.03-5.76,14.3-3.26,3.58,1.7,6.86,4.69,7.69,9.33l.2.09c3.75-2.53,8.49-2.93,13.62-.5,7.35,3.49,10.3,10.04,7.75,15.42-2.8,5.9-9.75,6.95-15.94,4.02Zm-19.18-14.84c4.23,2.01,7.51.96,10.36-1.67-.08-3.02-1.8-6.12-5.64-7.94-3.38-1.61-7.53-1.93-9.16,1.5-1.5,3.17.8,6.38,4.44,8.11Zm26.12-.46c-5.14-2.44-8.74-1.23-12.18,1.82-.13,3.98,2.28,7.3,6.31,9.21,4.23,2.17,9.03,1.79,10.74-1.81,1.63-3.43-.51-7.15-4.87-9.22Z"/>
        <path class="cls-1" d="m2656.57,2038.86c1.55-.59,4.38-2.33,5.63-4.98,2.33-4.9-1.64-8.64-5.17-10.26-5.94-2.77-10.17-.41-11.91,3.27l-1.01,2.12-4.29-2.04,1.01-2.12c1.32-2.78.84-7.31-4.17-9.68-3.38-1.61-7.05-1.59-8.72,1.92-1.07,2.26-.6,5.13.12,6.97l-4.64-.98c-.93-2.25-1.2-5.88.25-8.92,2.63-5.55,8.77-5.72,13.91-3.28,4.36,2.07,7.24,5.56,7.48,9.93l.13.06c2.69-2.98,7.93-3.94,13.85-1.13,6.77,3.21,11.02,9.53,7.81,16.3-1.5,3.17-4.32,5.23-6.34,5.97l-3.93-3.14Z"/>
      </g>
      <g>
        <path class="cls-1" d="m2692.92,1962.04c.46-.8.7-1.84,1.01-3.26.4-2.47-.2-5.16-1.93-7.71-1.89-2.93-5.2-5.77-10.18-8.28l-.05.13c2.35,2.74,3.21,5.74,2.11,8.66-1.99,5.25-9.19,6.37-16.67,3.54-8.28-3.14-14.04-9.89-11.77-15.86,2.26-5.97,10.93-6.89,22.11-2.65,9.63,3.65,15.54,8.36,18.63,12.82,2.45,3.5,3.29,7.36,2.64,10.7-.21,1.56-.62,2.85-1.04,3.76l-4.85-1.84Zm-24.64-10.99c5.45,2.07,10.12,1.32,11.42-2.09,1-2.65-.17-5.45-2.4-7.48-.45-.43-1.08-.82-2.02-1.18-7.47-2.83-13.89-3.16-15.46.96-1.28,3.37,2.26,7.43,8.46,9.78Z"/>
        <path class="cls-1" d="m2688.6,1918.61c14.88,5.64,21.7,12.44,19.25,18.9-2.16,5.7-11.64,6.52-26.15,1.12-14.68-5.57-21.16-12.85-18.91-18.77,2.33-6.15,11.87-6.54,25.81-1.25Zm-5.34,16.1c11.38,4.32,18.73,4.43,20.09.84,1.53-4.04-4.81-8.65-15.98-12.89-10.77-4.09-18.54-4.93-20.09-.84-1.31,3.46,4.06,8.37,15.98,12.89Z"/>
      </g>
      <g>
        <path class="cls-1" d="m2727.25,1863.56c.39-.84.55-1.89.74-3.33.2-2.49-.62-5.13-2.54-7.53-2.12-2.76-5.65-5.33-10.82-7.43l-.04.14c2.56,2.54,3.67,5.46,2.8,8.46-1.56,5.4-8.65,7.09-16.33,4.87-8.51-2.46-14.79-8.73-13.01-14.86,1.78-6.13,10.34-7.75,21.82-4.42,9.89,2.87,16.17,7.08,19.6,11.27,2.72,3.29,3.88,7.07,3.49,10.46-.08,1.58-.39,2.89-.74,3.83l-4.98-1.44Zm-25.44-8.97c5.6,1.62,10.2.5,11.21-3,.79-2.72-.6-5.42-2.99-7.26-.49-.39-1.14-.73-2.11-1.01-7.68-2.22-14.1-2.04-15.33,2.21-1,3.46,2.86,7.22,9.22,9.07Z"/>
        <path class="cls-1" d="m2725.12,1844.26c-5.67-1.64-9.03-5.06-10.31-9.43h-.22c-3.31,2.62-7.6,2.93-11.47,1.81-7.12-2.06-10.8-7.48-9.28-12.73,1.68-5.81,7.99-7.13,13.59-5.51,3.8,1.1,7.52,3.53,9.08,7.98l.21.06c3.29-3.09,7.91-4.26,13.37-2.67,7.82,2.26,11.78,8.26,10.12,13.98-1.82,6.27-8.51,8.43-15.08,6.53Zm-21.31-11.57c4.5,1.3,7.57-.26,9.96-3.31-.57-2.96-2.76-5.75-6.84-6.93-3.6-1.04-7.75-.69-8.8,2.95-.97,3.37,1.81,6.17,5.68,7.29Zm25.71-4.65c-5.46-1.58-8.83.19-11.73,3.75.51,3.95,3.42,6.84,7.71,8.08,4.52,1.46,9.2.32,10.31-3.51,1.05-3.64-1.65-6.98-6.29-8.32Z"/>
      </g>
      <g>
        <path class="cls-1" d="m2717.05,1758.93l-.02.09,3.22,6.19-4.89-.17-4-7.77.72-3.53,45.86,9.36-.82,4-40.07-8.18Z"/>
        <path class="cls-1" d="m2740.18,1730.63c15.59,3.18,23.41,8.8,22.03,15.57-1.22,5.97-10.44,8.3-25.63,5.3-15.38-3.14-22.94-9.29-21.68-15.5,1.32-6.44,10.67-8.35,25.28-5.37Zm-2.68,16.75c11.92,2.43,19.2,1.37,19.96-2.39.86-4.23-6.13-7.77-17.84-10.16-11.29-2.3-19.09-1.89-19.96,2.39-.74,3.62,5.35,7.61,17.84,10.16Z"/>
        <path class="cls-1" d="m2726.7,1708.82l-2.38,11.66,11.54,3.58c0-.73,0-1.42.23-2.55.48-2.35,1.74-4.54,3.81-6.08,2.54-1.98,6.89-3.15,12.67-1.97,8.96,1.83,14.69,7.95,13.34,14.58-.68,3.34-2.67,5.87-4.38,7.04l-4.52-2c1.39-1.04,3.31-3.24,3.88-6.02.8-3.9-2.33-8.02-8.47-9.27-5.94-1.16-10.71.61-11.96,6.72-.35,1.74-.35,3.16-.37,4.33l-21.61-6.47,2.99-14.63,5.22,1.07Z"/>
      </g>
      <g>
        <path class="cls-1" d="m2734.91,1659.1v.1s3.69,5.91,3.69,5.91l-4.89.23-4.61-7.43.43-3.57,46.46,5.64-.49,4.05-40.6-4.93Z"/>
        <path class="cls-1" d="m2737.42,1638.46v.1s3.69,5.91,3.69,5.91l-4.89.23-4.61-7.43.43-3.57,46.46,5.64-.49,4.05-40.6-4.93Z"/>
        <path class="cls-1" d="m2772.32,1629.99c1.29-1.05,3.41-3.6,3.76-6.51.65-5.38-4.29-7.68-8.16-8.1-6.51-.74-9.77,2.83-10.26,6.88l-.28,2.33-4.72-.57.28-2.33c.37-3.05-1.52-7.2-7.02-7.86-3.72-.45-7.2.72-7.66,4.58-.3,2.48,1.05,5.06,2.32,6.57l-4.71.54c-1.59-1.84-3-5.2-2.59-8.54.74-6.1,6.51-8.2,12.16-7.52,4.79.58,8.63,2.98,10.24,7.05l.14.02c1.61-3.67,6.27-6.25,12.78-5.46,7.43.9,13.47,5.55,12.57,12.99-.42,3.48-2.44,6.33-4.12,7.67l-4.72-1.73Z"/>
      </g>
      <g>
        <path class="cls-1" d="m2744.68,1558.17v.1s4.17,5.6,4.17,5.6l-4.85.62-5.19-7.03.14-3.6,46.77,1.88-.17,4.08-40.87-1.65Z"/>
        <path class="cls-1" d="m2786.01,1548.21l-3.88-.16-4.69-3.5c-11.05-8.42-16.95-12.26-24-12.59-4.75-.19-9.2,1.17-9.39,5.82-.11,2.83,1.95,5.27,3.69,6.78l-4.52,1.16c-2.65-2.27-4.54-5.42-4.39-9.02.27-6.71,7.29-9.27,13.98-9,8.63.35,15.44,4.8,24.68,11.76l3.35,2.63h.14s.56-14,.56-14l5.25.21-.8,19.91Z"/>
        <path class="cls-1" d="m2763.8,1505.76c15.9.64,24.52,4.93,24.24,11.84-.25,6.09-8.97,9.87-24.45,9.34-15.68-.63-24.14-5.49-23.88-11.82.26-6.57,9.19-9.96,24.09-9.36Zm.04,16.96c12.16.49,19.17-1.73,19.32-5.56.17-4.32-7.3-6.68-19.24-7.17-11.51-.46-19.14,1.2-19.32,5.56-.15,3.69,6.51,6.65,19.24,7.16Z"/>
      </g>
      <g>
        <path class="cls-1" d="m2787.04,1453.86l-3.88.16-4.95-3.12c-11.69-7.5-17.88-10.86-24.93-10.62-4.75.19-9.08,1.9-8.89,6.56.12,2.83,2.37,5.09,4.22,6.46l-4.41,1.52c-2.82-2.05-4.96-5.04-5.1-8.63-.27-6.71,6.52-9.82,13.21-10.09,8.63-.35,15.78,3.54,25.54,9.73l3.55,2.36h.14s-.56-14.01-.56-14.01l5.25-.21.8,19.91Z"/>
        <path class="cls-1" d="m2761.48,1413.34c15.9-.64,24.84,2.94,25.12,9.85.25,6.09-8.15,10.56-23.62,11.28-15.69.63-24.5-3.53-24.76-9.86-.26-6.57,8.36-10.67,23.26-11.27Zm1.4,16.9c12.16-.49,18.96-3.26,18.81-7.1-.17-4.32-7.81-6.08-19.76-5.59-11.51.46-18.99,2.74-18.81,7.1.15,3.69,7.02,6.11,19.76,5.59Z"/>
      </g>
      <g>
        <path class="cls-1" d="m2780.12,1349.4l-3.86.47-5.19-2.71c-12.25-6.54-18.69-9.38-25.7-8.58-4.72.57-8.89,2.63-8.33,7.25.34,2.81,2.77,4.89,4.73,6.1l-4.27,1.87c-2.98-1.81-5.35-4.62-5.78-8.2-.81-6.67,5.71-10.32,12.36-11.12,8.58-1.04,16.01,2.26,26.24,7.65l3.73,2.06.14-.02-1.69-13.92,5.22-.63,2.4,19.78Z"/>
        <path class="cls-1" d="m2734.2,1315.28l1.43,11.82,12.08-.26c-.23-.7-.45-1.35-.59-2.49-.29-2.38.21-4.86,1.69-6.98,1.78-2.68,5.54-5.17,11.4-5.88,9.08-1.1,16.45,2.89,17.27,9.6.41,3.38-.67,6.42-1.92,8.07l-4.92-.47c.99-1.43,2.11-4.12,1.77-6.94-.48-3.96-4.75-6.87-10.97-6.12-6,.78-9.96,3.97-9.21,10.16.21,1.76.67,3.11,1.02,4.23l-22.55.71-1.8-14.82,5.29-.64Z"/>
      </g>
      <g>
        <path class="cls-1" d="m2757.48,1246.31c.89-1.41,2.1-4.49,1.51-7.36-1.08-5.31-6.5-5.92-10.3-5.1-6.41,1.36-8.38,5.78-7.56,9.77l.47,2.3-4.66.95-.47-2.3c-.61-3.01-3.72-6.34-9.15-5.24-3.67.75-6.6,2.96-5.82,6.77.5,2.45,2.6,4.47,4.28,5.5l-4.29,2c-2.09-1.24-4.49-3.98-5.16-7.28-1.23-6.02,3.58-9.84,9.15-10.98,4.73-.97,9.13.09,11.95,3.44l.14-.03c.36-3.99,3.97-7.92,10.39-9.23,7.34-1.5,14.54,1,16.03,8.34.7,3.43-.31,6.77-1.48,8.58l-5.03-.15Z"/>
        <path class="cls-1" d="m2733.08,1209.94c15.59-3.18,24.99-1.08,26.37,5.69,1.22,5.97-6.35,11.73-21.5,14.92-15.38,3.14-24.75.45-26.02-5.76-1.32-6.44,6.54-11.87,21.15-14.85Zm4.09,16.46c11.92-2.43,18.2-6.26,17.43-10.02-.87-4.23-8.69-4.74-20.4-2.35-11.29,2.3-18.3,5.75-17.43,10.03.74,3.62,7.91,4.9,20.4,2.35Z"/>
      </g>
      <g>
        <path class="cls-1" d="m2733.99,1144.89c.77-1.47,1.73-4.65.91-7.46-1.51-5.21-6.96-5.38-10.68-4.25-6.28,1.87-7.88,6.43-6.75,10.35l.65,2.26-4.56,1.32-.65-2.26c-.86-2.95-4.22-6.02-9.54-4.48-3.6,1.04-6.34,3.48-5.26,7.22.69,2.4,2.95,4.24,4.71,5.13l-4.12,2.34c-2.18-1.07-4.79-3.61-5.73-6.84-1.71-5.9,2.77-10.1,8.24-11.68,4.63-1.34,9.11-.64,12.18,2.47l.14-.04c.04-4.01,3.32-8.21,9.61-10.03,7.19-2.08,14.57-.17,16.65,7.02.97,3.37.24,6.78-.79,8.67l-5.02.25Z"/>
        <path class="cls-1" d="m2690.45,1117.52l3.31,11.43,11.88-2.19c-.34-.65-.66-1.26-.98-2.36-.67-2.3-.57-4.83.55-7.16,1.32-2.93,4.64-5.99,10.31-7.63,8.78-2.54,16.7.21,18.59,6.71.95,3.27.37,6.44-.6,8.27l-4.93.33c.75-1.57,1.42-4.41.63-7.13-1.11-3.83-5.79-6.02-11.81-4.28-5.8,1.73-9.2,5.51-7.46,11.51.49,1.71,1.16,2.96,1.69,4.01l-22.14,4.31-4.15-14.34,5.12-1.48Z"/>
      </g>
      <g>
        <path class="cls-1" d="m2704.98,1031.89l-11.92,4.52,5.14,13.55-3.9,1.48-32.88-2.42-1.62-4.26,27.2-10.32-1.55-4.08,4.65-1.76,1.55,4.08,11.92-4.52,1.41,3.73Zm-16.56,6.28l-14.61,5.54c-2.29.87-4.59,1.69-6.92,2.47l.05.13c2.9-.07,5.06-.07,7.38-.03l17.59,1.49.13-.05-3.63-9.56Z"/>
        <path class="cls-1" d="m2672.53,1013.75c14.88-5.64,24.49-5.08,26.94,1.39,2.16,5.7-4.39,12.6-18.83,18.18-14.68,5.57-24.36,4.41-26.6-1.51-2.33-6.15,4.55-12.77,18.49-18.05Zm6.68,15.59c11.38-4.32,16.96-9.1,15.59-12.69-1.53-4.04-9.33-3.29-20.51.95-10.77,4.09-17.14,8.61-15.59,12.69,1.31,3.46,8.59,3.57,20.51-.95Z"/>
      </g>
      <g>
        <path class="cls-1" d="m2664.32,935.43l-11.51,5.46,6.21,13.1-3.77,1.79-32.96.23-1.96-4.12,26.28-12.47-1.87-3.95,4.49-2.13,1.87,3.95,11.52-5.46,1.71,3.6Zm-16,7.59l-14.12,6.7c-2.21,1.05-4.45,2.06-6.7,3.02l.06.13c2.88-.3,5.04-.48,7.36-.62l17.65.07.13-.06-4.38-9.24Z"/>
        <path class="cls-1" d="m2615.55,929.4l5.1,10.76,11.38-4.07c-.44-.59-.86-1.13-1.35-2.18-1.03-2.17-1.34-4.68-.6-7.15.84-3.11,3.62-6.66,8.95-9.19,8.26-3.92,16.52-2.47,19.42,3.64,1.46,3.08,1.4,6.3.73,8.26l-4.81,1.11c.49-1.67.7-4.58-.52-7.14-1.71-3.6-6.68-5.01-12.34-2.33-5.44,2.64-8.2,6.92-5.52,12.56.76,1.6,1.62,2.74,2.31,3.69l-21.16,7.81-6.4-13.49,4.81-2.29Z"/>
      </g>
      <g>
        <path class="cls-1" d="m2577.39,858.38l5.95,10.31,11.01-4.97c-.49-.55-.95-1.06-1.52-2.06-1.2-2.08-1.71-4.55-1.18-7.08.58-3.16,3.07-6.93,8.18-9.88,7.92-4.57,16.27-3.79,19.65,2.07,1.7,2.95,1.9,6.17,1.39,8.17l-4.71,1.5c.35-1.7.32-4.62-1.09-7.08-1.99-3.45-7.06-4.46-12.49-1.33-5.21,3.07-7.61,7.55-4.49,12.96.89,1.54,1.83,2.6,2.6,3.49l-20.46,9.49-7.46-12.93,4.62-2.66Z"/>
        <path class="cls-1" d="m2581.16,829.77c13.78-7.96,23.36-8.94,26.81-2.95,3.05,5.28-2.31,13.14-15.67,20.96-13.59,7.85-23.33,8.26-26.5,2.77-3.29-5.7,2.45-13.33,15.36-20.78Zm9.1,14.32c10.54-6.08,15.28-11.7,13.36-15.03-2.16-3.74-9.74-1.75-20.09,4.23-9.98,5.76-15.54,11.25-13.36,15.03,1.85,3.2,9.05,2.14,20.09-4.23Z"/>
      </g>
      <g>
        <path class="cls-1" d="m2523.21,772.83l6.76,9.8,10.58-5.84c-.53-.51-1.03-.98-1.68-1.93-1.36-1.98-2.07-4.4-1.74-6.96.33-3.2,2.5-7.15,7.36-10.5,7.53-5.19,15.91-5.09,19.76.48,1.94,2.81,2.39,5.99,2.05,8.04l-4.57,1.87c.21-1.72-.05-4.63-1.66-6.96-2.26-3.28-7.4-3.88-12.56-.32-4.95,3.48-6.98,8.14-3.43,13.28,1.01,1.46,2.04,2.44,2.87,3.27l-19.63,11.1-8.48-12.29,4.38-3.03Z"/>
        <path class="cls-1" d="m2511.41,755.72l6.76,9.8,10.58-5.84c-.53-.51-1.03-.98-1.68-1.93-1.36-1.97-2.07-4.4-1.74-6.96.33-3.2,2.5-7.15,7.36-10.5,7.53-5.2,15.91-5.09,19.76.48,1.94,2.8,2.39,5.99,2.05,8.04l-4.57,1.87c.21-1.72-.05-4.63-1.66-6.96-2.26-3.28-7.4-3.88-12.56-.32-4.95,3.48-6.98,8.14-3.43,13.28,1.01,1.46,2.04,2.44,2.87,3.27l-19.63,11.1-8.48-12.29,4.38-3.03Z"/>
      </g>
      <g>
        <path class="cls-1" d="m2462.18,692.84c.49.71,1.24,1.53,2.23,2.27,5.47,4.08,13.32,2.2,19.75-2.12l-.09-.11c-3.23.71-6.76.25-8.95-2.42-3.49-4.28-1.32-11.07,5.76-16.85,6.64-5.42,15.23-7.42,19.33-2.4,4.22,5.17.96,13.47-8.47,21.17-7.14,5.83-14.17,8.72-19.68,9.25-4.6.41-8.62-.77-11.67-3.36-1.01-.79-1.74-1.56-2.22-2.15l4.02-3.28Zm21.67-16.15c-5.19,4.24-6.7,8.76-4.24,11.77,1.61,1.97,4.94,2.29,8.29,1.04.74-.23,1.59-.68,2.48-1.4,5.91-4.95,8.83-10.37,6.03-13.79-2.31-2.83-7.37-1.85-12.56,2.38Z"/>
        <path class="cls-1" d="m2461.46,662.82c12.33-10.06,21.62-12.57,25.99-7.22,3.86,4.72-.17,13.34-12.1,23.21-12.16,9.93-21.71,11.9-25.71,6.99-4.16-5.09.28-13.55,11.82-22.98Zm11.28,12.67c9.43-7.7,13.2-14,10.77-16.98-2.73-3.35-9.89-.16-19.15,7.4-8.92,7.29-13.54,13.59-10.77,16.98,2.34,2.86,9.28.66,19.15-7.4Z"/>
      </g>
      <g>
        <path class="cls-1" d="m2395.1,617.12c.55.67,1.36,1.42,2.4,2.09,5.78,3.63,13.46,1.12,19.51-3.7l-.1-.1c-3.16.97-6.72.8-9.12-1.69-3.82-3.98-2.21-10.93,4.39-17.26,6.18-5.94,14.59-8.62,19.08-3.94,4.62,4.81,2.04,13.35-6.74,21.78-6.65,6.38-13.42,9.83-18.87,10.81-4.55.77-8.66-.07-11.9-2.41-1.07-.7-1.86-1.41-2.39-1.97l3.74-3.59Zm20.3-17.84c-4.83,4.64-5.97,9.27-3.28,12.07,1.76,1.83,5.11,1.89,8.34.37.72-.29,1.53-.8,2.36-1.6,5.49-5.41,7.96-11.04,4.9-14.23-2.53-2.63-7.5-1.25-12.33,3.38Z"/>
        <path class="cls-1" d="m2380.76,600.94l8.25,8.59,9.5-7.46c-.6-.42-1.17-.81-1.97-1.64-1.66-1.73-2.75-4.01-2.84-6.59-.19-3.21,1.32-7.46,5.58-11.55,6.6-6.33,14.89-7.58,19.58-2.7,2.36,2.46,3.32,5.53,3.31,7.6l-4.21,2.58c-.07-1.73-.79-4.57-2.75-6.61-2.76-2.87-7.93-2.64-12.44,1.7-4.33,4.23-5.58,9.16-1.26,13.66,1.23,1.28,2.4,2.08,3.36,2.77l-17.6,14.11-10.34-10.77,3.84-3.69Z"/>
      </g>
      <g>
        <path class="cls-1" d="m2317.29,548.6l2.77-3.13,38.44-22.9,3.27,2.9-37.59,22.01-.09.11,11.43,10.12-3.49,3.93-14.73-13.05Z"/>
        <path class="cls-1" d="m2316.56,517.36c10.55-11.91,19.33-15.88,24.5-11.29,4.56,4.04,1.97,13.19-8.22,24.85-10.41,11.75-19.52,15.22-24.26,11.02-4.92-4.36-1.9-13.42,7.98-24.58Zm13.16,10.7c8.07-9.11,10.79-15.94,7.91-18.48-3.23-2.87-9.79,1.43-17.72,10.37-7.64,8.62-11.18,15.59-7.91,18.48,2.77,2.45,9.27-.83,17.72-10.37Z"/>
      </g>
      <g>
        <path class="cls-1" d="m2239.07,484.88l2.51-3.34,36.47-25.92,3.49,2.62-35.7,24.97-.09.12,12.2,9.17-3.16,4.2-15.73-11.82Z"/>
        <path class="cls-1" d="m2226.96,469.12l9.52,7.15,8.18-8.89c-.66-.32-1.29-.61-2.21-1.3-1.92-1.44-3.36-3.52-3.86-6.05-.7-3.14.11-7.57,3.65-12.29,5.49-7.31,13.48-9.87,18.89-5.8,2.72,2.05,4.16,4.93,4.49,6.97l-3.74,3.22c-.34-1.7-1.51-4.38-3.78-6.08-3.18-2.39-8.25-1.33-12.01,3.67-3.6,4.87-4.04,9.93.95,13.68,1.42,1.07,2.71,1.67,3.76,2.19l-15.11,16.75-11.94-8.97,3.2-4.26Z"/>
      </g>
      <g>
        <path class="cls-1" d="m2192.08,409.11c-3.16,4.99-7.38,7.26-11.93,7.28l-.07.21c1.61,3.92.71,8.12-1.44,11.53-3.96,6.27-10.19,8.3-14.81,5.37-5.11-3.23-4.63-9.66-1.51-14.59,2.12-3.35,5.48-6.25,10.19-6.5l.12-.18c-2.05-4.03-1.89-8.78,1.15-13.59,4.35-6.88,11.21-9.01,16.24-5.83,5.52,3.49,5.73,10.52,2.07,16.3Zm-17.04,17.25c2.5-3.96,1.86-7.34-.41-10.48-3-.28-6.29,1.05-8.56,4.64-2,3.17-2.82,7.25.38,9.27,2.96,1.87,6.43-.02,8.59-3.43Zm2.69-25.99c-3.04,4.81-2.27,8.53.34,12.31,3.93.61,7.52-1.38,9.9-5.15,2.66-3.94,2.87-8.75-.5-10.88-3.21-2.03-7.16-.35-9.74,3.72Z"/>
        <path class="cls-1" d="m2150.24,396.87c8.5-13.45,16.53-18.77,22.37-15.08,5.15,3.26,4.06,12.71-4.13,25.84-8.39,13.27-16.82,18.16-22.18,14.77-5.56-3.51-4.03-12.94,3.94-25.54Zm14.71,8.45c6.5-10.29,8.09-17.46,4.84-19.51-3.65-2.31-9.44,2.98-15.83,13.08-6.16,9.74-8.54,17.18-4.84,19.51,3.12,1.98,9.01-2.31,15.83-13.08Z"/>
      </g>
      <g>
        <path class="cls-1" d="m2081,377.2l.08.04,6.84-1.37-1.52,4.65-8.58,1.68-3.19-1.67,21.75-41.44,3.61,1.9-19.01,36.21Z"/>
        <path class="cls-1" d="m2060.25,347.11c7.4-14.09,14.96-20.04,21.08-16.83,5.4,2.83,5.07,12.34-2.04,26.09-7.3,13.9-15.31,19.45-20.92,16.51-5.82-3.06-5.06-12.58,1.87-25.77Zm15.34,7.24c5.66-10.77,6.66-18.06,3.26-19.84-3.83-2.01-9.17,3.73-14.72,14.31-5.35,10.2-7.12,17.81-3.26,19.84,3.27,1.72,8.8-3.03,14.72-14.31Z"/>
      </g>
      <g>
        <path class="cls-1" d="m1989.81,333l.09.04,6.71-1.91-1.14,4.76-8.42,2.36-3.31-1.41,18.35-43.06,3.75,1.6-16.03,37.63Z"/>
        <path class="cls-1" d="m1991.38,297.12c-.65-1.53-2.51-4.28-5.2-5.42-4.99-2.13-8.57,1.98-10.05,5.58-2.52,6.05,0,10.17,3.75,11.77l2.16.92-1.86,4.37-2.16-.92c-2.83-1.2-7.33-.54-9.51,4.56-1.47,3.44-1.31,7.11,2.27,8.64,2.3.98,5.15.4,6.96-.4l-.79,4.67c-2.21,1.02-5.83,1.43-8.92.11-5.65-2.41-6.07-8.54-3.84-13.77,1.89-4.44,5.27-7.46,9.62-7.88l.06-.13c-3.08-2.57-4.26-7.76-1.69-13.79,2.93-6.89,9.08-11.39,15.97-8.46,3.22,1.37,5.4,4.1,6.22,6.09l-2.98,4.05Z"/>
      </g>
      <g>
        <path class="cls-1" d="m1895.25,296.32l.09.03,6.54-2.45-.75,4.83-8.2,3.03-3.41-1.14,14.82-44.4,3.87,1.29-12.95,38.79Z"/>
        <path class="cls-1" d="m1866.38,287.29l11.29,3.77,4.95-11.03c-.73-.09-1.41-.17-2.5-.53-2.28-.76-4.3-2.27-5.58-4.52-1.66-2.76-2.3-7.22-.43-12.82,2.9-8.67,9.66-13.63,16.08-11.48,3.23,1.08,5.51,3.36,6.46,5.19l-2.53,4.24c-.86-1.5-2.82-3.68-5.51-4.57-3.78-1.26-8.24,1.35-10.23,7.29-1.87,5.75-.69,10.7,5.23,12.68,1.68.56,3.1.73,4.26.89l-9.03,20.67-14.16-4.73,1.69-5.05Z"/>
      </g>
      <g>
        <path class="cls-1" d="m1798.14,267.39l.09.02,6.32-2.97-.36,4.88-7.93,3.68-3.5-.86,11.2-45.44,3.96.98-9.79,39.71Z"/>
        <path class="cls-1" d="m1794.18,236.53c-1.41,5.73-4.7,9.23-9.01,10.68v.22c2.76,3.2,3.25,7.48,2.28,11.39-1.78,7.2-7.04,11.1-12.35,9.79-5.87-1.45-7.45-7.69-6.05-13.36.95-3.84,3.22-7.66,7.61-9.4l.05-.21c-3.22-3.17-4.57-7.73-3.21-13.25,1.95-7.9,7.78-12.1,13.56-10.67,6.34,1.56,8.76,8.17,7.13,14.81Zm-10.7,21.76c1.12-4.54-.56-7.55-3.71-9.81-2.94.68-5.63,2.99-6.65,7.11-.9,3.64-.38,7.77,3.3,8.67,3.4.84,6.09-2.06,7.06-5.97Zm-5.68-25.5c-1.36,5.52.55,8.81,4.22,11.57,3.92-.67,6.69-3.69,7.76-8.02,1.28-4.58-.05-9.21-3.92-10.16-3.68-.91-6.9,1.93-8.06,6.62Z"/>
      </g>
      <g>
        <path class="cls-1" d="m1714.52,207.49l-.62,3.84-4.04,4.23c-9.69,9.95-14.21,15.34-15.39,22.3-.76,4.69.05,9.27,4.64,10.02,2.8.45,5.46-1.3,7.17-2.85l.61,4.62c-2.57,2.35-5.93,3.85-9.48,3.27-6.63-1.08-8.32-8.36-7.25-14.97,1.39-8.53,6.63-14.75,14.65-23.08l3.02-3.01.02-.14-13.84-2.25.84-5.19,19.66,3.2Z"/>
        <path class="cls-1" d="m1669.7,224.43c2.55-15.71,7.85-23.75,14.67-22.64,6.02.98,8.72,10.1,6.33,25.39-2.52,15.49-8.36,23.3-14.61,22.28-6.49-1.06-8.78-10.33-6.39-25.04Zm16.84,2.01c1.95-12.01.6-19.23-3.19-19.85-4.26-.69-7.51,6.44-9.43,18.24-1.85,11.37-1.12,19.15,3.19,19.85,3.65.59,7.39-5.66,9.43-18.24Z"/>
      </g>
      <g>
        <path class="cls-1" d="m1610.79,193.31l-.31,3.88-3.69,4.54c-8.86,10.7-12.93,16.44-13.55,23.47-.38,4.74.8,9.24,5.44,9.61,2.82.23,5.34-1.74,6.92-3.41l.98,4.56c-2.37,2.55-5.6,4.32-9.19,4.03-6.7-.54-8.96-7.66-8.43-14.33.7-8.61,5.42-15.24,12.74-24.18l2.77-3.24v-.14s-13.96-1.13-13.96-1.13l.42-5.24,19.86,1.6Z"/>
        <path class="cls-1" d="m1588.48,198.81c-1.1-1.25-3.73-3.26-6.65-3.5-5.41-.44-7.5,4.6-7.76,8.48-.48,6.54,3.22,9.65,7.29,9.98l2.34.19-.38,4.74-2.34-.19c-3.06-.25-7.13,1.81-7.58,7.33-.3,3.73,1.01,7.16,4.89,7.47,2.49.2,5.01-1.26,6.47-2.58l.73,4.68c-1.77,1.66-5.07,3.2-8.42,2.93-6.12-.49-8.46-6.17-8-11.84.39-4.81,2.63-8.75,6.63-10.52v-.14c-3.72-1.46-6.49-6.01-5.96-12.55.6-7.46,5.01-13.68,12.47-13.08,3.49.28,6.42,2.18,7.83,3.81l-1.54,4.79Z"/>
      </g>
    </g>
  </g>
</svg>